<?xml version="1.0" encoding="UTF-8"?>
<svg version="1.1" xmlns="http://www.w3.org/2000/svg" width="495" height="447">
<path d="M0 0 C1.86408134 -0.00389684 3.7281597 -0.00954035 5.59223109 -0.0167709 C10.69414973 -0.03148796 15.79575853 -0.0213666 20.89766705 -0.00703418 C26.40757756 0.00409278 31.91744523 -0.00787261 37.42735291 -0.01687622 C48.21234643 -0.03079807 58.99722275 -0.02326064 69.78221067 -0.00820064 C82.34226309 0.00866985 94.9022864 0.00544796 107.46234665 0.00170528 C130.54760579 -0.00434866 153.63281026 0.01142162 176.71805059 0.03689292 C197.78607778 0.06001532 218.85403634 0.06539245 239.92207336 0.05516052 C245.31902151 0.05255844 250.71596966 0.04997341 256.1129179 0.0475626 C256.77737722 0.04726515 257.44183653 0.0469677 258.12643098 0.04666124 C275.74100068 0.03904532 293.35556493 0.04551841 310.97013217 0.05625862 C313.49493809 0.05778446 316.01974402 0.05930481 318.54454994 0.06081963 C320.4079147 0.06195635 320.4079147 0.06195635 322.30892318 0.06311603 C331.06473585 0.06785951 339.82053301 0.06600703 348.57634544 0.06175423 C359.24377246 0.05682937 369.91112847 0.06280418 380.57853922 0.08264852 C386.02153207 0.0925244 391.46441676 0.09762232 396.90741539 0.08975601 C401.88943274 0.08270316 406.87123177 0.08949471 411.85322032 0.10735964 C413.65584416 0.1114066 415.45848786 0.11040011 417.26110431 0.10384078 C419.71174314 0.09568629 422.161647 0.10600771 424.61223888 0.12088871 C425.66133793 0.11078223 425.66133793 0.11078223 426.73163089 0.10047159 C433.21373485 0.17656397 438.50193809 1.76031712 443.48432922 5.87620544 C447.31220745 10.6047609 447.86011174 14.49656269 447.87218475 20.5100441 C447.87629002 21.20703854 447.88039529 21.90403297 447.88462496 22.62214845 C447.89595512 24.96319178 447.8930518 27.3039994 447.89021301 29.64506531 C447.89538086 31.33826205 447.90140733 33.03145636 447.90821981 34.72464728 C447.92435985 39.38203415 447.92793895 44.03935938 447.92941475 48.69677091 C447.93311583 53.71805046 447.94821043 58.73929802 447.96168518 63.76055908 C447.98885218 74.74191759 448.00090111 85.7232615 448.0097065 96.70464802 C448.01523089 103.56041842 448.02370548 110.41618318 448.03271484 117.27194977 C448.05709948 136.25089285 448.07769874 155.22983141 448.08446503 174.20878983 C448.08512373 176.03091267 448.08512373 176.03091267 448.08579573 177.88984607 C448.08623229 179.10751006 448.08666884 180.32517405 448.08711863 181.57973695 C448.08800556 184.04721213 448.08889869 186.5146873 448.08979797 188.98216248 C448.09046226 190.81809403 448.09046226 190.81809403 448.09113997 192.69111511 C448.09903744 212.52732145 448.13395034 232.36338092 448.18051702 252.19953051 C448.22793244 272.56143158 448.25286817 292.92325892 448.25520086 313.28521609 C448.25703497 324.71920441 448.26855465 336.15300132 448.30484009 347.58693695 C448.3356264 357.32237609 448.34589241 367.05756467 448.32936388 376.79304323 C448.32154527 381.76033541 448.32343603 386.72712289 448.35147858 391.6943531 C448.37692469 396.24325948 448.37459164 400.79128111 448.35029715 405.34018597 C448.34637743 406.98420496 448.35256729 408.62828628 448.36998588 410.27221766 C448.44944323 418.27929764 448.4282291 425.10288953 443.57958364 431.82490134 C438.46029833 436.18041953 433.19001426 436.94350861 426.66443729 436.88152218 C425.89054713 436.8861821 425.11665696 436.89084202 424.31931558 436.89564314 C421.72864375 436.90758473 419.13849717 436.89820106 416.54782104 436.8888855 C414.67069379 436.89305878 412.79356906 436.89853626 410.91644901 436.90520531 C405.75994306 436.91967931 400.60359668 436.91540906 395.44708192 436.9080385 C389.88529412 436.903314 384.3235412 436.91581029 378.76176453 436.92605591 C367.86662533 436.94326312 356.97154376 436.94407996 346.07639451 436.938843 C337.22221825 436.93480378 328.36805903 436.93624192 319.51388359 436.94159126 C317.62458686 436.9427139 317.62458686 436.9427139 315.69712253 436.94385921 C313.13850411 436.94539066 310.5798857 436.94692901 308.02126729 436.94847418 C290.8391787 436.95830477 273.65709663 436.96246473 256.47500706 436.95484829 C255.8031695 436.95455112 255.13133194 436.95425394 254.43913567 436.95394776 C248.98336808 436.95149884 243.52760057 436.94888725 238.07183307 436.94626363 C216.78962409 436.93616067 195.507494 436.94451766 174.22529602 436.96775818 C150.31263447 436.99382897 126.40002009 437.00662973 102.48733944 436.99957043 C89.82665396 436.99607445 77.16603327 436.9983353 64.50535774 437.01582146 C53.7280319 437.03052165 42.95081648 437.03120739 32.17349286 437.01375055 C26.67378528 437.00522038 21.17427515 437.00314028 15.67457771 437.0184021 C10.6405416 437.0321989 5.60687302 437.02755057 0.57285845 437.00816286 C-1.24873042 437.00438715 -3.07034838 437.00736983 -4.89191144 437.01777451 C-7.36836317 437.03091461 -9.84354082 437.01938858 -12.31993771 437.0017767 C-13.02689784 437.01142721 -13.73385797 437.02107772 -14.46224114 437.03102067 C-19.80156257 436.95307169 -24.01354873 435.4713556 -28.39067078 432.50120544 C-32.60156105 427.21059971 -33.51532721 423.38303096 -33.52489185 416.73566914 C-33.52724408 416.04068279 -33.52959631 415.34569645 -33.53201982 414.62964991 C-33.53871628 412.28345959 -33.53825141 409.93732457 -33.5378418 407.59112549 C-33.54114002 405.89894405 -33.5448655 404.20676341 -33.54898328 402.51458377 C-33.55901612 397.8507587 -33.56272213 393.18694651 -33.56537259 388.52311218 C-33.56927182 383.4984195 -33.5788504 378.47373706 -33.58758545 373.4490509 C-33.60736039 361.30777894 -33.61741727 349.16650613 -33.62631324 337.02522209 C-33.63069436 331.3105732 -33.63606161 325.59592524 -33.64130211 319.88127708 C-33.65831523 300.8895439 -33.67281011 281.8978113 -33.68005085 262.90607166 C-33.68196081 257.97611299 -33.68388113 253.04615433 -33.68583679 248.11619568 C-33.68632053 246.890848 -33.68680427 245.66550031 -33.68730267 244.40302088 C-33.69560558 224.54665129 -33.72094655 204.69034189 -33.75341747 184.8339986 C-33.78646794 164.45748017 -33.80449778 144.08099235 -33.80769509 123.70444697 C-33.80986203 112.25988483 -33.81863754 100.81541046 -33.84415627 89.3708744 C-33.86583575 79.62551792 -33.87392723 69.88027054 -33.86418948 60.13489268 C-33.85963684 55.16176607 -33.86158702 50.1888647 -33.88095093 45.21576881 C-33.89852648 40.66268385 -33.89763056 36.10998937 -33.88205364 31.55690058 C-33.87966903 29.91015153 -33.8840452 28.26337584 -33.89588229 26.61666761 C-34.00277864 10.76330498 -34.00277864 10.76330498 -30.92277861 5.96446252 C-23.00935544 -1.59334262 -10.13650001 -0.05875047 0 0 Z " fill="#A3D7FD" transform="translate(39.39067077636719,4.4987945556640625)"/>
<path d="M0 0 C2.68300383 0.0236829 5.36501286 0.02052279 8.0480957 0.01391602 C21.18882301 0.03359467 33.832696 0.67488884 46.30786133 5.21118164 C47.06615234 5.47584229 47.82444336 5.74050293 48.60571289 6.01318359 C50.78158679 6.77594467 52.95100306 7.55512941 55.12036133 8.33618164 C56.23540039 8.72418945 57.35043945 9.11219727 58.49926758 9.51196289 C74.27819179 15.07215523 89.76243265 24.06648847 102.12036133 35.33618164 C102.91265137 36.05040283 102.91265137 36.05040283 103.72094727 36.77905273 C107.56727622 40.24956559 111.37539755 43.75646217 115.12036133 47.33618164 C115.68682373 47.86912842 116.25328613 48.4020752 116.83691406 48.95117188 C121.35939246 53.31340744 125.0621685 58.02298244 128.68286133 63.14868164 C129.25294922 63.95200928 129.82303711 64.75533691 130.41040039 65.58300781 C131.99166324 67.82646426 133.5589772 70.07886321 135.12036133 72.33618164 C135.73266602 73.21274414 136.3449707 74.08930664 136.97583008 74.99243164 C145.10189279 87.55710004 150.70189057 102.82937174 154.12036133 117.33618164 C154.40524414 118.51696289 154.69012695 119.69774414 154.98364258 120.91430664 C160.06193697 143.1529039 163.23320518 179.14605241 150.67895508 199.69555664 C148.62535721 201.8572386 146.85035265 202.29476588 143.91096544 202.4615308 C142.60735669 202.46177433 142.60735669 202.46177433 141.27741241 202.46202278 C139.77162605 202.4659344 139.77162605 202.4659344 138.23541975 202.46992505 C137.12950247 202.46769432 136.0235852 202.4654636 134.88415527 202.46316528 C133.71172917 202.46472527 132.53930306 202.46628526 131.3313489 202.46789253 C128.07165447 202.47119843 124.81199707 202.46999854 121.55230355 202.46690631 C118.03897161 202.46464939 114.52564478 202.46813329 111.01231384 202.47088623 C104.12755773 202.47533977 97.2428125 202.4743693 90.35805595 202.47147359 C84.76413946 202.46921793 79.17022602 202.46890774 73.5763092 202.46999741 C72.78105317 202.47015064 71.98579713 202.47030387 71.16644242 202.47046175 C69.55104522 202.47078146 67.93564801 202.47110568 66.32025081 202.47143434 C51.16210018 202.47428791 36.00395559 202.47100403 20.84580594 202.46563397 C7.83103883 202.46116605 -5.18371937 202.46194201 -18.19848633 202.46655273 C-33.30130107 202.47190066 -48.40411051 202.47401323 -63.50692606 202.47094047 C-65.11647955 202.47062191 -66.72603305 202.47030754 -68.33558655 202.46999741 C-69.1275791 202.46984313 -69.91957164 202.46968885 -70.73556396 202.4695299 C-76.32468208 202.46866541 -81.91379684 202.47012619 -87.50291443 202.47247696 C-94.31141531 202.47527757 -101.11990466 202.47453116 -107.92840421 202.46919622 C-111.40416052 202.46656275 -114.87989758 202.46554818 -118.35565376 202.46884537 C-122.11826619 202.4715601 -125.88082373 202.46817168 -129.64343262 202.46316528 C-130.74934989 202.465396 -131.85526717 202.46762673 -132.99469709 202.46992505 C-133.99855467 202.4673173 -135.00241225 202.46470955 -136.03668976 202.46202278 C-136.90576226 202.46186043 -137.77483476 202.46169808 -138.67024279 202.4615308 C-140.87963867 202.33618164 -140.87963867 202.33618164 -143.87963867 201.33618164 C-147.45224526 196.13408465 -149.00251622 191.19072608 -150.12963867 185.02368164 C-150.29874756 184.10159912 -150.46785645 183.1795166 -150.64208984 182.22949219 C-152.10928556 173.04933527 -152.22475441 163.92121142 -152.19213867 154.64868164 C-152.1896814 153.92079437 -152.18722412 153.1929071 -152.18469238 152.44296265 C-152.11441682 140.79642974 -151.801475 129.43589906 -148.69213867 118.14868164 C-148.36113159 116.92894653 -148.36113159 116.92894653 -148.0234375 115.68457031 C-142.33367314 95.28216117 -133.37935104 77.40346528 -120.87963867 60.33618164 C-120.15776367 59.34489258 -119.43588867 58.35360352 -118.69213867 57.33227539 C-115.33709468 52.86587308 -115.33709468 52.86587308 -113.87963867 51.33618164 C-113.21963867 51.33618164 -112.55963867 51.33618164 -111.87963867 51.33618164 C-111.47346313 50.43754395 -111.47346313 50.43754395 -111.05908203 49.52075195 C-109.89082318 47.35689764 -108.79305687 46.05023004 -107.00854492 44.38305664 C-106.44006836 43.85035156 -105.8715918 43.31764648 -105.28588867 42.76879883 C-104.67745117 42.21353516 -104.06901367 41.65827148 -103.44213867 41.08618164 C-102.81178711 40.50771484 -102.18143555 39.92924805 -101.53198242 39.33325195 C-96.26322983 34.56311107 -90.79289275 30.28646249 -84.87963867 26.33618164 C-84.32775879 25.96509277 -83.77587891 25.59400391 -83.20727539 25.21166992 C-67.52925739 14.7178268 -51.22782071 7.75984038 -32.87963867 3.33618164 C-31.35342896 2.95333008 -31.35342896 2.95333008 -29.79638672 2.56274414 C-19.81289626 0.29092543 -10.21763881 -0.09620777 0 0 Z " fill="#A3D5FB" transform="translate(236.879638671875,63.663818359375)"/>
<path d="M0 0 C2.68300383 0.0236829 5.36501286 0.02052279 8.0480957 0.01391602 C21.18882301 0.03359467 33.832696 0.67488884 46.30786133 5.21118164 C47.06615234 5.47584229 47.82444336 5.74050293 48.60571289 6.01318359 C50.78158679 6.77594467 52.95100306 7.55512941 55.12036133 8.33618164 C56.23540039 8.72418945 57.35043945 9.11219727 58.49926758 9.51196289 C74.27819179 15.07215523 89.76243265 24.06648847 102.12036133 35.33618164 C102.91265137 36.05040283 102.91265137 36.05040283 103.72094727 36.77905273 C107.56727622 40.24956559 111.37539755 43.75646217 115.12036133 47.33618164 C115.68682373 47.86912842 116.25328613 48.4020752 116.83691406 48.95117188 C121.35939246 53.31340744 125.0621685 58.02298244 128.68286133 63.14868164 C129.25294922 63.95200928 129.82303711 64.75533691 130.41040039 65.58300781 C131.99166324 67.82646426 133.5589772 70.07886321 135.12036133 72.33618164 C135.73266602 73.21274414 136.3449707 74.08930664 136.97583008 74.99243164 C145.10189279 87.55710004 150.70189057 102.82937174 154.12036133 117.33618164 C154.40524414 118.51696289 154.69012695 119.69774414 154.98364258 120.91430664 C160.06193697 143.1529039 163.23320518 179.14605241 150.67895508 199.69555664 C148.62535721 201.8572386 146.85035265 202.29476588 143.91096544 202.4615308 C142.60735669 202.46177433 142.60735669 202.46177433 141.27741241 202.46202278 C139.77162605 202.4659344 139.77162605 202.4659344 138.23541975 202.46992505 C137.12950247 202.46769432 136.0235852 202.4654636 134.88415527 202.46316528 C133.71172917 202.46472527 132.53930306 202.46628526 131.3313489 202.46789253 C128.07165447 202.47119843 124.81199707 202.46999854 121.55230355 202.46690631 C118.03897161 202.46464939 114.52564478 202.46813329 111.01231384 202.47088623 C104.12755773 202.47533977 97.2428125 202.4743693 90.35805595 202.47147359 C84.76413946 202.46921793 79.17022602 202.46890774 73.5763092 202.46999741 C72.78105317 202.47015064 71.98579713 202.47030387 71.16644242 202.47046175 C69.55104522 202.47078146 67.93564801 202.47110568 66.32025081 202.47143434 C51.16210018 202.47428791 36.00395559 202.47100403 20.84580594 202.46563397 C7.83103883 202.46116605 -5.18371937 202.46194201 -18.19848633 202.46655273 C-33.30130107 202.47190066 -48.40411051 202.47401323 -63.50692606 202.47094047 C-65.11647955 202.47062191 -66.72603305 202.47030754 -68.33558655 202.46999741 C-69.1275791 202.46984313 -69.91957164 202.46968885 -70.73556396 202.4695299 C-76.32468208 202.46866541 -81.91379684 202.47012619 -87.50291443 202.47247696 C-94.31141531 202.47527757 -101.11990466 202.47453116 -107.92840421 202.46919622 C-111.40416052 202.46656275 -114.87989758 202.46554818 -118.35565376 202.46884537 C-122.11826619 202.4715601 -125.88082373 202.46817168 -129.64343262 202.46316528 C-130.74934989 202.465396 -131.85526717 202.46762673 -132.99469709 202.46992505 C-133.99855467 202.4673173 -135.00241225 202.46470955 -136.03668976 202.46202278 C-136.90576226 202.46186043 -137.77483476 202.46169808 -138.67024279 202.4615308 C-140.87963867 202.33618164 -140.87963867 202.33618164 -143.87963867 201.33618164 C-147.45224526 196.13408465 -149.00251622 191.19072608 -150.12963867 185.02368164 C-150.29874756 184.10159912 -150.46785645 183.1795166 -150.64208984 182.22949219 C-152.10928556 173.04933527 -152.22475441 163.92121142 -152.19213867 154.64868164 C-152.1896814 153.92079437 -152.18722412 153.1929071 -152.18469238 152.44296265 C-152.11441682 140.79642974 -151.801475 129.43589906 -148.69213867 118.14868164 C-148.36113159 116.92894653 -148.36113159 116.92894653 -148.0234375 115.68457031 C-142.33367314 95.28216117 -133.37935104 77.40346528 -120.87963867 60.33618164 C-120.15776367 59.34489258 -119.43588867 58.35360352 -118.69213867 57.33227539 C-115.33709468 52.86587308 -115.33709468 52.86587308 -113.87963867 51.33618164 C-113.21963867 51.33618164 -112.55963867 51.33618164 -111.87963867 51.33618164 C-111.47346313 50.43754395 -111.47346313 50.43754395 -111.05908203 49.52075195 C-109.89082318 47.35689764 -108.79305687 46.05023004 -107.00854492 44.38305664 C-106.44006836 43.85035156 -105.8715918 43.31764648 -105.28588867 42.76879883 C-104.67745117 42.21353516 -104.06901367 41.65827148 -103.44213867 41.08618164 C-102.81178711 40.50771484 -102.18143555 39.92924805 -101.53198242 39.33325195 C-96.26322983 34.56311107 -90.79289275 30.28646249 -84.87963867 26.33618164 C-84.32775879 25.96509277 -83.77587891 25.59400391 -83.20727539 25.21166992 C-67.52925739 14.7178268 -51.22782071 7.75984038 -32.87963867 3.33618164 C-31.35342896 2.95333008 -31.35342896 2.95333008 -29.79638672 2.56274414 C-19.81289626 0.29092543 -10.21763881 -0.09620777 0 0 Z M-23.88696289 19.88745117 C-25.8705596 20.33413713 -27.85974344 20.74018396 -29.85229492 21.14477539 C-40.50360415 23.43384382 -50.11361454 27.57406771 -59.87963867 32.33618164 C-60.75233398 32.75770508 -61.6250293 33.17922852 -62.52416992 33.61352539 C-78.93205692 42.1675444 -93.04116828 55.28817355 -104.87963867 69.33618164 C-105.50483398 70.07352539 -106.1300293 70.81086914 -106.77416992 71.57055664 C-111.27997601 77.10710268 -114.64213939 82.99033864 -117.87963867 89.33618164 C-118.38495117 90.2965332 -118.89026367 91.25688477 -119.41088867 92.24633789 C-126.0919886 105.18244719 -130.19987172 118.08524706 -132.87963867 132.33618164 C-133.07686523 133.3790332 -133.2740918 134.42188477 -133.47729492 135.49633789 C-134.10215129 141.45977297 -134.06407692 147.4068236 -134.06713867 153.39868164 C-134.07938477 154.63295898 -134.09163086 155.86723633 -134.10424805 157.13891602 C-134.4173964 171.09274367 -134.4173964 171.09274367 -130.87963867 184.33618164 C-42.43963867 184.33618164 46.00036133 184.33618164 137.12036133 184.33618164 C142.46223187 152.28495838 141.11239077 123.54030836 126.12036133 94.33618164 C125.43632505 92.94837884 124.75273285 91.56035706 124.06958008 90.17211914 C110.72522636 63.56430618 86.04861835 41.55283499 59.12036133 29.33618164 C57.87899414 28.72516602 57.87899414 28.72516602 56.61254883 28.10180664 C47.34804283 23.82588079 37.50034204 21.88534582 27.55786133 19.84106445 C25.63631194 19.44305122 23.72077823 19.015994 21.80786133 18.57836914 C6.93989204 15.50968943 -9.16051965 16.56604652 -23.88696289 19.88745117 Z " fill="#020406" transform="translate(236.879638671875,63.663818359375)"/>
<path d="M0 0 C6.20791811 2.85564233 7.67153635 6.98151345 10 13 C11.26605213 16.6803762 12.39668042 20.39297228 13.5 24.125 C13.80043213 25.1260376 14.10086426 26.1270752 14.41040039 27.15844727 C16.76621834 35.0651335 18.96636683 43.00441119 21 51 C21.69427103 48.91718691 22.3877629 46.83411199 23.078125 44.75 C23.70110535 42.89161795 24.33688072 41.03748366 24.984375 39.1875 C27.1701399 32.86559536 28.83689338 26.57382867 30.2890625 20.046875 C33.77747989 5.09651475 33.77747989 5.09651475 39.875 0.625 C42.74837179 -0.22010935 45.01880682 -0.31054096 48 0 C50.375 1.375 50.375 1.375 52 3 C52 3.66 52 4.32 52 5 C52.9597876 5.36798706 52.9597876 5.36798706 53.93896484 5.7434082 C56 7 56 7 56.69775391 8.86010742 C56.83576416 9.97156128 56.83576416 9.97156128 56.9765625 11.10546875 C57.09 11.92466797 57.2034375 12.74386719 57.3203125 13.58789062 C57.42085938 14.44576172 57.52140625 15.30363281 57.625 16.1875 C58.37315148 21.9812207 59.32066545 27.3840877 61 33 C61.30767607 34.80661074 61.57789499 36.61995566 61.8125 38.4375 C63.07356046 47.11359597 64.96145772 55.65745888 66.78125 64.23046875 C66.98363281 65.1951709 67.18601562 66.15987305 67.39453125 67.15380859 C67.79466407 69.03475553 68.20850396 70.9128444 68.63671875 72.78759766 C68.82878906 73.65819824 69.02085937 74.52879883 69.21875 75.42578125 C69.39341797 76.18930908 69.56808594 76.95283691 69.74804688 77.73950195 C70.20071997 81.80083936 69.2347315 85.58909403 67 89 C63.56966462 91.54098917 60.14006158 91.5175077 56 91 C52.74754871 87.66982469 51.40716197 84.89887349 50.5 80.375 C50.26539063 79.24449219 50.03078125 78.11398437 49.7890625 76.94921875 C49.66563477 76.3257959 49.54220703 75.70237305 49.41503906 75.06005859 C48.9537184 72.7702799 48.45939867 70.48900637 47.9609375 68.20703125 C47.59845562 66.533963 47.2364742 64.86078625 46.875 63.1875 C46.70419922 62.39972168 46.53339844 61.61194336 46.35742188 60.80029297 C45.31732724 55.87849059 44.55871197 50.99990206 44 46 C42.03138339 48.95292491 41.28161227 51.0615099 40.34375 54.4453125 C39.89322266 56.06179688 39.89322266 56.06179688 39.43359375 57.7109375 C39.12550781 58.83757812 38.81742187 59.96421875 38.5 61.125 C38.19191406 62.2284375 37.88382812 63.331875 37.56640625 64.46875 C36.03498409 70.00290218 34.59440261 75.51643846 33.49755859 81.15429688 C32.42538204 85.13155632 29.99231202 87.97347032 27.1875 90.875 C23.88560521 92.57311732 21.66155273 92.50504176 18 92 C13.18472322 88.66116304 11.2165891 86.29096589 9.5 80.5625 C9.20935669 79.62241089 9.20935669 79.62241089 8.9128418 78.66333008 C6.76737949 71.58136097 4.89618997 64.40460412 3.0546875 57.23852539 C2.69697266 55.87328735 2.69697266 55.87328735 2.33203125 54.48046875 C2.12296143 53.66473389 1.9138916 52.84899902 1.69848633 52.00854492 C1.09577531 49.80536458 1.09577531 49.80536458 -1 48 C-2.07214814 53.24721915 -3.09693212 58.500594 -4.0612793 63.76879883 C-5.14026441 69.6300476 -6.25744249 75.48353913 -7.5 81.3125 C-7.7165625 82.33988281 -7.933125 83.36726563 -8.15625 84.42578125 C-9.04065018 87.12402069 -9.79588966 88.26257629 -12 90 C-15.09173752 91.54586876 -17.59429552 91.29359521 -21 91 C-23.36497439 89.13291495 -24.66030715 87.67938569 -26 85 C-25.96207359 82.39766496 -25.85717135 79.84387988 -25.6875 77.25 C-25.65205078 76.54617188 -25.61660156 75.84234375 -25.58007812 75.1171875 C-25.30694397 70.73073455 -24.4016567 67.18412762 -23 63 C-22.38546556 59.53599516 -21.94503207 56.05184488 -21.5 52.5625 C-20.26662065 42.93265358 -20.26662065 42.93265358 -18.99609375 38.48828125 C-17.4461027 33.06027336 -16.91351878 27.50792349 -16.23242188 21.9140625 C-14.10287593 5.72480718 -14.10287593 5.72480718 -8 1 C-5.13391871 -0.43304064 -3.18699217 -0.30644155 0 0 Z " fill="#030507" transform="translate(240,282)"/>
<path d="M0 0 C1.14551271 -0.00307895 1.14551271 -0.00307895 2.31416708 -0.0062201 C4.8879975 -0.01190065 7.46177459 -0.01043155 10.0356102 -0.00901413 C11.89364647 -0.01159716 13.75168219 -0.01461014 15.60971713 -0.01801753 C20.72734739 -0.02609805 25.84496363 -0.02787769 30.96259952 -0.028615 C36.47739333 -0.03046371 41.99217985 -0.03801011 47.50696945 -0.04475021 C59.57093359 -0.05834133 71.63489441 -0.06435941 83.69886494 -0.06876087 C91.22884632 -0.07152187 98.75882641 -0.07575895 106.28880692 -0.08026505 C127.12921813 -0.09245852 147.96962867 -0.1027932 168.81004333 -0.10614014 C170.1577602 -0.10636177 171.50547706 -0.10658355 172.85319392 -0.10680549 C174.20416914 -0.10702613 175.55514436 -0.10724661 176.90611959 -0.10746694 C179.61641773 -0.10790949 182.32671587 -0.1083566 185.03701401 -0.10880661 C185.70901044 -0.108916 186.38100688 -0.10902539 187.07336685 -0.1091381 C208.8650478 -0.11276909 230.65669549 -0.12869083 252.44836371 -0.15199697 C275.48651973 -0.1765912 298.52466038 -0.19030605 321.56283164 -0.19150805 C334.12183308 -0.19242552 346.68079097 -0.19819587 359.23978043 -0.21632767 C369.93298252 -0.23171116 380.6261276 -0.23685945 391.31933865 -0.22858956 C396.77646855 -0.22467692 402.23348359 -0.22564267 407.69059944 -0.23964691 C412.68583403 -0.25234879 417.68086701 -0.25122098 422.67610118 -0.2390562 C424.48365092 -0.23709276 426.29121476 -0.24020736 428.09874466 -0.24890056 C430.55610031 -0.25997123 433.01274165 -0.25252007 435.47007751 -0.24050903 C436.17147781 -0.24810423 436.8728781 -0.25569942 437.59553295 -0.26352477 C444.08585589 -0.19506189 449.3732858 1.38554648 454.36172104 5.50642776 C458.18959927 10.23498322 458.73750356 14.12678501 458.74957657 20.14026642 C458.75368184 20.83726086 458.7577871 21.53425529 458.76201677 22.25237077 C458.77334693 24.5934141 458.77044361 26.93422172 458.76760483 29.27528763 C458.77277267 30.96848437 458.77879915 32.66167868 458.78561163 34.3548696 C458.80175167 39.01225648 458.80533076 43.6695817 458.80680656 48.32699323 C458.81050764 53.34827278 458.82560225 58.36952034 458.839077 63.3907814 C458.86624399 74.37213991 458.87829292 85.35348382 458.88709831 96.33487034 C458.89262271 103.19064074 458.9010973 110.0464055 458.91010666 116.90217209 C458.9344913 135.88111517 458.95509055 154.86005373 458.96185684 173.83901215 C458.96251554 175.66113499 458.96251554 175.66113499 458.96318755 177.52006839 C458.9636241 178.73773238 458.96406066 179.95539637 458.96451044 181.20995927 C458.96539738 183.67743445 458.9662905 186.14490962 458.96718979 188.6123848 C458.96785408 190.44831635 458.96785408 190.44831635 458.96853179 192.32133743 C458.97642926 212.15754377 459.01134216 231.99360324 459.05790883 251.82975283 C459.10532425 272.1916539 459.13025998 292.55348124 459.13259268 312.91543841 C459.13442678 324.34942673 459.14594646 335.78322364 459.1822319 347.21715927 C459.21301822 356.95259841 459.22328423 366.68778699 459.2067557 376.42326555 C459.19893708 381.39055773 459.20082785 386.35734521 459.22887039 391.32457542 C459.2543165 395.8734818 459.25198345 400.42150343 459.22768897 404.97040829 C459.22376924 406.61442728 459.22995911 408.2585086 459.24737769 409.90243998 C459.32683504 417.90951996 459.30562092 424.73311185 454.45697546 431.45512366 C449.33769015 435.81064185 444.06740608 436.57373094 437.54182911 436.5117445 C436.76793894 436.51640442 435.99404878 436.52106434 435.1967074 436.52586547 C432.60603556 436.53780705 430.01588899 436.52842338 427.42521286 436.51910782 C425.54808561 436.5232811 423.67096087 436.52875858 421.79384083 436.53542763 C416.63733488 436.54990163 411.4809885 436.54563138 406.32447374 436.53826082 C400.76268594 436.53353632 395.20093301 436.54603261 389.63915634 436.55627823 C378.74401715 436.57348544 367.84893558 436.57430228 356.95378632 436.56906532 C348.09961006 436.5650261 339.24545085 436.56646424 330.39127541 436.57181358 C328.50197868 436.57293622 328.50197868 436.57293622 326.57451434 436.57408153 C324.01589592 436.57561298 321.45727751 436.57715133 318.8986591 436.5786965 C301.71657052 436.58852709 284.53448844 436.59268705 267.35239887 436.58507061 C266.68056131 436.58477344 266.00872375 436.58447626 265.31652748 436.58417008 C259.8607599 436.58172116 254.40499239 436.57910957 248.94922488 436.57648595 C227.6670159 436.56638299 206.38488582 436.57473998 185.10268784 436.5979805 C161.19002628 436.62405129 137.2774119 436.63685205 113.36473125 436.62979275 C100.70404577 436.62629677 88.04342509 436.62855762 75.38274956 436.64604378 C64.60542372 436.66074397 53.8282083 436.66142971 43.05088467 436.64397287 C37.5511771 436.6354427 32.05166696 436.6333626 26.55196953 436.64862442 C21.51793342 436.66242122 16.48426484 436.65777289 11.45025026 436.63838518 C9.62866139 436.63460948 7.80704344 436.63759215 5.98548038 436.64799684 C3.50902865 436.66113693 1.033851 436.6496109 -1.44254589 436.63199902 C-2.14950603 436.64164953 -2.85646616 436.65130004 -3.58484933 436.66124299 C-8.92417076 436.58329401 -13.13615692 435.10157792 -17.51327896 432.13142776 C-21.72416924 426.84082203 -22.6379354 423.01325328 -22.64750004 416.36589146 C-22.64985227 415.67090511 -22.6522045 414.97591877 -22.65462801 414.25987223 C-22.66132447 411.91368191 -22.66085959 409.56754689 -22.66044998 407.22134781 C-22.6637482 405.52916637 -22.66747368 403.83698573 -22.67159146 402.14480609 C-22.6816243 397.48098102 -22.68533032 392.81716883 -22.68798077 388.1533345 C-22.69188001 383.12864182 -22.70145859 378.10395938 -22.71019363 373.07927322 C-22.72996857 360.93800126 -22.74002545 348.79672846 -22.74892142 336.65544441 C-22.75330254 330.94079552 -22.7586698 325.22614756 -22.76391029 319.5114994 C-22.78092342 300.51976622 -22.79541829 281.52803362 -22.80265903 262.53629398 C-22.80456899 257.60633531 -22.80648932 252.67637665 -22.80844498 247.746418 C-22.80892872 246.52107032 -22.80941246 245.29572263 -22.80991086 244.0332432 C-22.81821377 224.17687361 -22.84355473 204.32056422 -22.87602565 184.46422092 C-22.90907613 164.08770249 -22.92710597 143.71121467 -22.93030328 123.33466929 C-22.93247021 111.89010715 -22.94124572 100.44563278 -22.96676445 89.00109673 C-22.98844393 79.25574024 -22.99653542 69.51049286 -22.98679767 59.765115 C-22.98224503 54.7919884 -22.9841952 49.81908702 -23.00355911 44.84599113 C-23.02113467 40.29290617 -23.02023875 35.74021169 -23.00466182 31.1871229 C-23.00227721 29.54037385 -23.00665338 27.89359816 -23.01849047 26.24688993 C-23.12082527 11.07003414 -23.12082527 11.07003414 -18.51327896 4.13142776 C-16.86327896 4.13142776 -15.21327896 4.13142776 -13.51327896 4.13142776 C-14.64966627 6.40420239 -15.79872766 8.62927608 -17.06372792 10.83555079 C-18.71224677 14.58382538 -18.8901993 17.15832308 -18.8935957 21.24045944 C-18.89825561 21.93612977 -18.90291553 22.63180009 -18.90771666 23.34855133 C-18.91966558 25.6791609 -18.91027197 28.00918738 -18.90095901 30.33980179 C-18.90513198 32.02775092 -18.91060929 33.71569725 -18.91727883 35.40363836 C-18.93175692 40.04179809 -18.92748134 44.67978048 -18.92011201 49.31795001 C-18.91538855 54.3200681 -18.92788285 59.32214737 -18.93812943 64.32425308 C-18.95533835 74.12330375 -18.95615317 83.92229036 -18.95091652 93.72135222 C-18.94687781 101.68407506 -18.94831481 109.64677895 -18.95366478 117.60950089 C-18.9544132 118.74207836 -18.95516162 119.87465583 -18.95593273 121.04155383 C-18.95746417 123.34224324 -18.95900252 125.64293265 -18.96054769 127.94362205 C-18.97428008 149.52563561 -18.96882964 171.10761294 -18.95736248 192.68962568 C-18.94742728 212.44369845 -18.96037445 232.19767759 -18.98429667 251.95173591 C-19.00866504 272.22664709 -19.01830124 292.50151461 -19.01164395 312.77644014 C-19.00814696 324.16275664 -19.01041551 335.5490011 -19.02789497 346.93530655 C-19.04258859 356.62722722 -19.04328955 366.31902511 -19.02582406 376.01094329 C-19.01728862 380.95750612 -19.01522644 385.90384933 -19.03047562 390.85040092 C-19.04425692 395.37675429 -19.03964453 399.90269855 -19.02023638 404.42902786 C-19.01645586 406.06824333 -19.01945704 407.70749106 -19.02984803 409.34667796 C-19.04295623 411.57241297 -19.0314918 413.79672302 -19.01385021 416.02239609 C-19.01374288 417.25931025 -19.01363554 418.49622441 -19.01352495 419.77062082 C-18.28663825 424.65407001 -15.95072427 427.69398246 -12.51327896 431.13142776 C-8.79847226 432.51755082 -4.885651 432.27010232 -0.97600269 432.25726891 C-0.20974039 432.25872235 0.55652191 432.26017579 1.34600428 432.26167327 C3.92860972 432.26533957 6.51115638 432.26184391 9.09376144 432.25841141 C10.95806028 432.25956298 12.82235888 432.26115074 14.68665701 432.26313865 C19.82148403 432.26732708 24.95629255 432.26524345 30.09111965 432.26215243 C35.62425862 432.25989658 41.15739435 432.26337889 46.69053268 432.26613235 C57.53493051 432.27058712 68.37932143 432.26961485 79.22371953 432.26671971 C88.03508176 432.26446442 96.84644205 432.26415371 105.65780449 432.26524353 C107.53652105 432.26547338 107.53652105 432.26547338 109.45319148 432.26570787 C111.99732069 432.26602759 114.5414499 432.2663518 117.0855791 432.26668046 C140.28076302 432.26945301 163.47594332 432.26657411 186.67112641 432.26133787 C207.85209161 432.25659269 229.03305081 432.25701624 250.21401596 432.26179886 C274.00136608 432.26715202 297.78871329 432.26925917 321.57606417 432.26618659 C324.11131672 432.26586804 326.64656927 432.26555367 329.18182182 432.26524353 C330.42931615 432.26508925 331.67681048 432.26493498 332.96210767 432.26477603 C341.76533082 432.26391156 350.56855185 432.26537225 359.37177467 432.26772308 C370.09652336 432.270524 380.82126473 432.26977666 391.54601257 432.26444234 C397.0209593 432.2618092 402.49589381 432.26079375 407.97084045 432.26409149 C412.97881224 432.2670624 417.98676043 432.26544827 422.99473006 432.26011394 C424.8102996 432.25899316 426.62587111 432.25957347 428.44143938 432.26198973 C430.90218945 432.26501442 433.36285788 432.26192759 435.82360363 432.25726891 C436.53448931 432.25961007 437.24537499 432.26195124 437.97780266 432.26436335 C445.38203746 432.34887428 445.38203746 432.34887428 451.23672104 428.38142776 C454.67933601 423.4087617 454.61193279 419.16086625 454.61535549 413.21070671 C454.61798505 412.17951163 454.61798505 412.17951163 454.62066773 411.12748432 C454.62532761 408.81893371 454.62286226 406.51044609 454.62043381 404.20189285 C454.62230178 402.53202175 454.62460243 400.86215109 454.62729913 399.19228113 C454.63342515 394.59944979 454.63328259 390.00663664 454.63210475 385.41380215 C454.63190095 380.46210511 454.63741753 375.51041395 454.64216232 370.55871964 C454.65047369 360.85613531 454.65321738 351.15355706 454.6537747 341.45096947 C454.6542496 333.56594491 454.65630307 325.68092236 454.65947533 317.79589844 C454.66828301 295.4491988 454.67289449 273.10250397 454.67214485 250.75580259 C454.6721049 249.55073546 454.67206494 248.34566833 454.67202377 247.10408401 C454.67198289 245.89754871 454.67194201 244.69101341 454.67189989 243.44791643 C454.67149333 223.8884792 454.68106521 204.32906122 454.69516214 184.76962955 C454.70951661 164.69476579 454.71643285 144.61991142 454.71556836 124.5450424 C454.71523609 113.2710402 454.71799668 101.99705818 454.72874641 90.72306061 C454.73783916 81.12523344 454.74003675 71.52743558 454.73323699 61.92960598 C454.72996566 57.03158901 454.72993718 52.13362834 454.73859024 47.23561668 C454.74642905 42.75245743 454.74505069 38.26939936 454.73630611 33.78624265 C454.73476534 32.1638014 454.73660891 30.5413527 454.74216618 28.91892023 C454.74921959 26.71376796 454.74393805 24.5089713 454.73561001 22.3038311 C454.73582738 21.07890564 454.73604474 19.85398017 454.7362687 18.59193575 C454.4655841 14.83831927 453.76954634 11.66776072 452.48672104 8.13142776 C450.10552858 6.728849 450.10552858 6.728849 447.48672104 6.13142776 C446.49672104 5.47142776 445.50672104 4.81142776 444.48672104 4.13142776 C441.97196912 3.93967124 439.5687872 3.86513216 437.05408192 3.8825388 C436.28698549 3.87993151 435.51988906 3.87732423 434.72954729 3.87463793 C432.13803031 3.86830062 429.54675221 3.87632407 426.95524216 3.88418961 C425.08696828 3.88260256 423.21869497 3.88014 421.35042328 3.8768732 C416.1999831 3.87043671 411.04962108 3.87654557 405.89918602 3.88463748 C400.35105053 3.89119712 394.80292403 3.88626978 389.25478745 3.88275528 C378.37916277 3.87770506 367.50356842 3.8833653 356.62794752 3.89260558 C343.97282769 3.90297256 331.31771448 3.90291984 318.66259121 3.902433 C295.40498444 3.90191682 272.14739452 3.91196431 248.88979409 3.92693544 C227.64858189 3.94055822 206.40738093 3.94679682 185.1661644 3.94612503 C183.80246822 3.94608462 182.43877205 3.94604426 181.07507587 3.94600395 C180.06380877 3.94597343 180.06380877 3.94597343 179.03211202 3.94594228 C175.6385437 3.94584149 172.24497537 3.94575091 168.85140705 3.94567204 C168.18194042 3.94565532 167.51247379 3.94563861 166.82272029 3.94562139 C145.28110611 3.94517804 123.73949388 3.95229689 102.1978813 3.96003488 C93.36915354 3.96305515 84.54042675 3.96411491 75.71169853 3.96456718 C64.95688528 3.96524842 54.20208098 3.9697005 43.44727153 3.97889999 C37.9562545 3.98352598 32.46524893 3.98656055 26.97422981 3.98530579 C21.95269904 3.98421393 16.93119367 3.98770964 11.9096682 3.99495431 C10.08803075 3.99677344 8.26639068 3.99689233 6.44475312 3.99518702 C3.97820537 3.9931328 1.51174171 3.99716721 -0.9547987 4.00279331 C-1.67020159 4.00073799 -2.38560447 3.99868267 -3.12268624 3.99656507 C-6.39832085 4.01031277 -9.38045429 4.1225049 -12.51327896 5.13142776 C-12.18327896 3.81142776 -11.85327896 2.49142776 -11.51327896 1.13142776 C-7.71414369 -0.08938781 -3.94569147 -0.00982292 0 0 Z " fill="#2B3238" transform="translate(28.51327896118164,4.868572235107422)"/>
<path d="M0 0 C1.24845703 -0.00193359 2.49691406 -0.00386719 3.78320312 -0.00585938 C5.07548828 0.01798828 6.36777344 0.04183594 7.69921875 0.06640625 C8.97990234 0.05544922 10.26058594 0.04449219 11.58007812 0.03320312 C19.08005386 0.09110309 24.87555815 0.82192714 31.38671875 4.62890625 C32.47984375 5.24765625 33.57296875 5.86640625 34.69921875 6.50390625 C37.7489785 8.91534419 39.43432108 11.28193881 41.38671875 14.62890625 C41.928125 15.46421875 41.928125 15.46421875 42.48046875 16.31640625 C43.80939848 19.70746831 43.67570201 23.04244604 43.63671875 26.62890625 C43.64832031 27.69625 43.64832031 27.69625 43.66015625 28.78515625 C43.64562537 32.67943205 43.180371 35.22400706 41.38671875 38.62890625 C41.71638183 42.03990997 43.34246975 44.21347302 45.32421875 46.94140625 C49.96521894 53.77491733 51.35148947 60.45888581 50.38671875 68.62890625 C48.29235982 76.91855448 44.03852306 83.40183308 37.00170898 88.28344727 C28.56513535 93.00879926 21.23415197 93.53490218 11.80249023 93.35620117 C9.42708662 93.31603199 7.05715453 93.33570625 4.68164062 93.36132812 C3.15753059 93.35377882 1.63343274 93.34283524 0.109375 93.328125 C-0.94382179 93.33860115 -0.94382179 93.33860115 -2.01829529 93.34928894 C-5.58743778 93.24685398 -7.43572218 92.76394425 -10.29623413 90.5884552 C-13.1819263 86.90257969 -13.32799949 84.10875102 -13.27612305 79.61328125 C-13.28649094 78.82078979 -13.29685883 78.02829834 -13.30754089 77.21179199 C-13.33457682 74.60029861 -13.32495804 71.99048856 -13.3125 69.37890625 C-13.3184099 67.55956555 -13.32565703 65.74022875 -13.33418274 63.92089844 C-13.34605711 60.11112174 -13.33936487 56.30192949 -13.32006836 52.4921875 C-13.29717556 47.61246075 -13.32396727 42.73447454 -13.36513042 37.85491943 C-13.39071734 34.09900094 -13.38812634 30.34349848 -13.37723732 26.58752441 C-13.37575141 24.78859883 -13.38343176 22.98964124 -13.4004879 21.1907959 C-13.42047666 18.67430328 -13.40206315 16.16088269 -13.3737793 13.64453125 C-13.38749573 12.90360229 -13.40121216 12.16267334 -13.41534424 11.39929199 C-13.35169574 8.562719 -13.15395483 6.30093047 -11.33936214 4.04550266 C-7.61452061 0.78332515 -4.88653705 -0.00314606 0 0 Z " fill="#030406" transform="translate(144.61328125,281.37109375)"/>
<path d="M0 0 C1.65 0 3.3 0 5 0 C3.86361269 2.27277462 2.7145513 4.49784832 1.44955105 6.70412302 C-0.19896781 10.45239761 -0.37692034 13.02689531 -0.38031673 17.10903168 C-0.38497665 17.804702 -0.38963657 18.50037233 -0.3944377 19.21712357 C-0.40638662 21.54773313 -0.39699301 23.87775961 -0.38768005 26.20837402 C-0.39185301 27.89632316 -0.39733032 29.58426948 -0.40399987 31.2722106 C-0.41847796 35.91037032 -0.41420238 40.54835271 -0.40683305 45.18652225 C-0.40210959 50.18864033 -0.41460389 55.1907196 -0.42485046 60.19282532 C-0.44205939 69.99187599 -0.44287421 79.79086259 -0.43763756 89.58992445 C-0.43359885 97.5526473 -0.43503585 105.51535118 -0.44038582 113.47807312 C-0.44113424 114.61065059 -0.44188266 115.74322806 -0.44265376 116.91012606 C-0.44418521 119.21081547 -0.44572356 121.51150488 -0.44726873 123.81219429 C-0.46100112 145.39420785 -0.45555068 166.97618518 -0.44408352 188.55819792 C-0.43414831 208.31227068 -0.44709549 228.06624982 -0.47101771 247.82030815 C-0.49538608 268.09521932 -0.50502228 288.37008685 -0.49836498 308.64501238 C-0.49486799 320.03132888 -0.49713655 331.41757333 -0.51461601 342.80387878 C-0.52930963 352.49579945 -0.53001059 362.18759734 -0.5125451 371.87951553 C-0.50400966 376.82607835 -0.50194748 381.77242157 -0.51719666 386.71897316 C-0.53097796 391.24532653 -0.52636557 395.77127079 -0.50695742 400.29760009 C-0.50317689 401.93681556 -0.50617808 403.5760633 -0.51656907 405.21525019 C-0.52967726 407.4409852 -0.51821284 409.66529526 -0.50057125 411.89096832 C-0.50046391 413.12788249 -0.50035658 414.36479665 -0.50024599 415.63919306 C0.22664071 420.52264224 2.56255469 423.56255469 6 427 C9.70946499 428.38143079 13.61607447 428.1442769 17.52000809 428.1386652 C18.28439162 428.14150742 19.04877516 428.14434964 19.83632183 428.14727798 C22.41247811 428.15563817 24.98858949 428.15689423 27.5647583 428.15821838 C29.42437177 428.16278283 31.28398422 428.16778268 33.14359546 428.17318195 C38.26526402 428.18678581 43.38692594 428.19418792 48.50860786 428.20060861 C54.0273428 428.20860268 59.54606386 428.22230387 65.06478882 428.23532104 C74.63021663 428.25709789 84.19564585 428.27523796 93.76108551 428.29092598 C107.59120142 428.3136136 121.42130196 428.34175797 135.25140485 428.37124526 C157.68842983 428.41893476 180.12546112 428.46220376 202.5625 428.50268555 C224.3613331 428.54202637 246.16016064 428.58344669 267.95898438 428.62768555 C268.63078343 428.62904808 269.30258249 428.63041061 269.99473909 428.63181442 C276.74115065 428.64549966 283.48756213 428.65922721 290.23397355 428.67298577 C346.82263732 428.78838805 403.41131302 428.89664938 460 429 C460 429.33 460 429.66 460 430 C312.82 430 165.64 430 14 430 C14 430.66 14 431.32 14 432 C8.20373667 431.6002577 4.49973483 430.98840132 0 427 C-5.20580591 419.4097501 -4.56020735 411.34224929 -4.50793457 402.48864746 C-4.51254596 400.79214617 -4.51890047 399.09564887 -4.52684355 397.39915991 C-4.54352738 392.74652366 -4.53529479 388.09421599 -4.52289867 383.44157863 C-4.51384666 378.4203652 -4.52781867 373.39920819 -4.53881836 368.37800598 C-4.55660651 358.54511534 -4.55276225 348.71234682 -4.5411678 338.87945139 C-4.53213493 330.88818587 -4.53090884 322.89695458 -4.53526306 314.90568542 C-4.53587599 313.76840566 -4.53648893 312.63112589 -4.53712043 311.4593831 C-4.53839933 309.14903421 -4.53969618 306.83868533 -4.5410108 304.52833647 C-4.55241747 282.86326017 -4.53930151 261.19825157 -4.51780933 239.53318638 C-4.49993829 220.94282602 -4.50304237 202.35256558 -4.52148438 183.76220703 C-4.54288953 162.17475124 -4.55131882 140.58735478 -4.53903532 118.99988985 C-4.53776112 116.69803143 -4.53650364 114.39617301 -4.53526306 112.09431458 C-4.53464596 110.96175085 -4.53402886 109.82918713 -4.53339306 108.6623033 C-4.5299391 100.6804686 -4.5357695 92.69867153 -4.54518127 84.71684265 C-4.55639867 74.98988754 -4.5533666 65.26306156 -4.5320583 55.53612125 C-4.52154446 50.57309924 -4.51743183 45.61029253 -4.53065491 40.64727211 C-4.54257759 36.10361685 -4.53601823 31.56037639 -4.5147447 27.01675874 C-4.51027813 25.37353275 -4.51254617 23.73027168 -4.52224785 22.08706826 C-4.60479405 6.94382659 -4.60479405 6.94382659 0 0 Z " fill="#313F4A" transform="translate(10,9)"/>
<path d="M0 0 C2.82908449 0.42135301 4.5846874 0.8409486 6.9375 2.4375 C9.40015611 6.13148417 9.2332062 8.95144816 9.22802734 13.22607422 C9.23810318 14.41437332 9.23810318 14.41437332 9.24838257 15.62667847 C9.26739838 18.24857842 9.27128861 20.87022286 9.2734375 23.4921875 C9.27986316 25.31438299 9.28659134 27.13657744 9.29360962 28.95877075 C9.3055915 32.78031811 9.30928953 36.60177502 9.30810547 40.42333984 C9.30790228 45.3184201 9.33520039 50.2129198 9.36964989 55.10786247 C9.39189678 58.8722703 9.39594368 62.63653795 9.39488602 66.40100479 C9.39724547 68.20551682 9.40608834 70.01003251 9.42155075 71.81447983 C9.44116551 74.34011115 9.43539096 76.86448479 9.42333984 79.39013672 C9.43457886 80.13420776 9.44581787 80.87827881 9.45739746 81.64489746 C9.41413081 85.21649977 9.00972729 87.31752143 7.15322876 90.40139771 C4.5085819 92.83164623 2.58459295 93.03099716 -0.96484375 93.1015625 C-4.34161826 92.03256498 -5.84517352 90.16112478 -8.0625 87.4375 C-8.557844 84.56595717 -8.74861483 82.28731578 -8.70947266 79.421875 C-8.71823425 78.62938354 -8.72699585 77.83689209 -8.73602295 77.02038574 C-8.7579741 74.40886175 -8.74348056 71.79904026 -8.7265625 69.1875 C-8.72993189 67.36816077 -8.73478554 65.54882373 -8.74105835 63.72949219 C-8.74842384 59.9197035 -8.73773483 56.11050163 -8.71435547 52.30078125 C-8.6858676 47.42121674 -8.70227335 42.54302725 -8.73221779 37.66351318 C-8.75029968 33.90760976 -8.74452871 30.15203147 -8.73157883 26.39611816 C-8.72824727 24.597207 -8.73232313 22.79826615 -8.74397659 20.99938965 C-8.75670047 18.4831747 -8.73728951 15.96917521 -8.70947266 13.453125 C-8.71959381 12.71219604 -8.72971497 11.97126709 -8.74014282 11.20788574 C-8.66011481 7.29360145 -8.16975992 5.57328016 -5.71347046 2.46386719 C-3.0625 0.4375 -3.0625 0.4375 0 0 Z " fill="#010205" transform="translate(338.0625,281.5625)"/>
<path d="M0 0 C0.76367514 -0.00205263 1.52735027 -0.00410527 2.31416708 -0.0062201 C4.8879975 -0.01190065 7.46177459 -0.01043155 10.0356102 -0.00901413 C11.89364647 -0.01159716 13.75168219 -0.01461014 15.60971713 -0.01801753 C20.72734739 -0.02609805 25.84496363 -0.02787769 30.96259952 -0.028615 C36.47739333 -0.03046371 41.99217985 -0.03801011 47.50696945 -0.04475021 C59.57093359 -0.05834133 71.63489441 -0.06435941 83.69886494 -0.06876087 C91.22884632 -0.07152187 98.75882641 -0.07575895 106.28880692 -0.08026505 C127.12921813 -0.09245852 147.96962867 -0.1027932 168.81004333 -0.10614014 C170.1577602 -0.10636177 171.50547706 -0.10658355 172.85319392 -0.10680549 C174.20416914 -0.10702613 175.55514436 -0.10724661 176.90611959 -0.10746694 C179.61641773 -0.10790949 182.32671587 -0.1083566 185.03701401 -0.10880661 C185.70901044 -0.108916 186.38100688 -0.10902539 187.07336685 -0.1091381 C208.8650478 -0.11276909 230.65669549 -0.12869083 252.44836371 -0.15199697 C275.48651973 -0.1765912 298.52466038 -0.19030605 321.56283164 -0.19150805 C334.12183308 -0.19242552 346.68079097 -0.19819587 359.23978043 -0.21632767 C369.93298252 -0.23171116 380.6261276 -0.23685945 391.31933865 -0.22858956 C396.77646855 -0.22467692 402.23348359 -0.22564267 407.69059944 -0.23964691 C412.68583403 -0.25234879 417.68086701 -0.25122098 422.67610118 -0.2390562 C424.48365092 -0.23709276 426.29121476 -0.24020736 428.09874466 -0.24890056 C430.55610031 -0.25997123 433.01274165 -0.25252007 435.47007751 -0.24050903 C436.17147781 -0.24810423 436.8728781 -0.25569942 437.59553295 -0.26352477 C444.08585589 -0.19506189 449.3732858 1.38554648 454.36172104 5.50642776 C457.7135692 9.64694608 458.79022807 12.82005478 458.48672104 18.13142776 C455.23448044 15.1748454 453.8658456 12.26880146 452.48672104 8.13142776 C450.0960337 7.02506381 450.0960337 7.02506381 447.48672104 6.13142776 C446.49672104 5.47142776 445.50672104 4.81142776 444.48672104 4.13142776 C441.97196912 3.93967124 439.5687872 3.86513216 437.05408192 3.8825388 C436.28698549 3.87993151 435.51988906 3.87732423 434.72954729 3.87463793 C432.13803031 3.86830062 429.54675221 3.87632407 426.95524216 3.88418961 C425.08696828 3.88260256 423.21869497 3.88014 421.35042328 3.8768732 C416.1999831 3.87043671 411.04962108 3.87654557 405.89918602 3.88463748 C400.35105053 3.89119712 394.80292403 3.88626978 389.25478745 3.88275528 C378.37916277 3.87770506 367.50356842 3.8833653 356.62794752 3.89260558 C343.97282769 3.90297256 331.31771448 3.90291984 318.66259121 3.902433 C295.40498444 3.90191682 272.14739452 3.91196431 248.88979409 3.92693544 C227.64858189 3.94055822 206.40738093 3.94679682 185.1661644 3.94612503 C183.80246822 3.94608462 182.43877205 3.94604426 181.07507587 3.94600395 C180.06380877 3.94597343 180.06380877 3.94597343 179.03211202 3.94594228 C175.6385437 3.94584149 172.24497537 3.94575091 168.85140705 3.94567204 C168.18194042 3.94565532 167.51247379 3.94563861 166.82272029 3.94562139 C145.28110611 3.94517804 123.73949388 3.95229689 102.1978813 3.96003488 C93.36915354 3.96305515 84.54042675 3.96411491 75.71169853 3.96456718 C64.95688528 3.96524842 54.20208098 3.9697005 43.44727153 3.97889999 C37.9562545 3.98352598 32.46524893 3.98656055 26.97422981 3.98530579 C21.95269904 3.98421393 16.93119367 3.98770964 11.9096682 3.99495431 C10.08803075 3.99677344 8.26639068 3.99689233 6.44475312 3.99518702 C3.97820537 3.9931328 1.51174171 3.99716721 -0.9547987 4.00279331 C-2.02790303 3.99971033 -2.02790303 3.99971033 -3.12268624 3.99656507 C-6.39832085 4.01031277 -9.38045429 4.1225049 -12.51327896 5.13142776 C-12.18327896 3.81142776 -11.85327896 2.49142776 -11.51327896 1.13142776 C-7.71414369 -0.08938781 -3.94569147 -0.00982292 0 0 Z " fill="#575D61" transform="translate(28.51327896118164,4.868572235107422)"/>
<path d="M0 0 C4.6 2.2 4.6 2.2 6 5 C6.55910987 10.68428373 6.55910987 10.68428373 6 13 C3.98828125 15.2109375 3.98828125 15.2109375 2.61328125 16.48071289 C0.67303325 18.30791678 -1.11381131 20.24539886 -2.91796875 22.20703125 C-3.61470703 22.95791016 -4.31144531 23.70878906 -5.02929688 24.48242188 C-6.48325073 26.05216572 -7.93370744 27.62515512 -9.38085938 29.20117188 C-10.42016602 30.31782227 -10.42016602 30.31782227 -11.48046875 31.45703125 C-12.10848389 32.13741455 -12.73649902 32.81779785 -13.38354492 33.51879883 C-15 35 -15 35 -17 35 C-17.2475 35.58394531 -17.495 36.16789062 -17.75 36.76953125 C-19.18455564 39.32931647 -20.76704286 40.79523301 -23 42.6875 C-23.70125 43.28949219 -24.4025 43.89148438 -25.125 44.51171875 C-28.47650962 47.17197951 -30.74646782 47.34028257 -35 47 C-37.3125 46.0625 -37.3125 46.0625 -39 44 C-40.15260549 39.90272432 -40.54943225 36.35742085 -38.9375 32.375 C-38.298125 31.59125 -37.65875 30.8075 -37 30 C-36.58492187 29.46890625 -36.16984375 28.9378125 -35.7421875 28.390625 C-32.49842746 24.38466997 -28.87808936 21.09440091 -24.95703125 17.765625 C-22.50159233 15.55033879 -20.41117971 13.1374926 -18.32421875 10.578125 C-16.95229092 8.94314316 -15.59532286 7.41996566 -14 6 C-13.34 6 -12.68 6 -12 6 C-12 5.34 -12 4.68 -12 4 C-8.14731386 0.03056579 -5.45565082 -0.68195635 0 0 Z " fill="#040508" transform="translate(271,181)"/>
<path d="M0 0 C-0.66 0.33 -1.32 0.66 -2 1 C-2 1.66 -2 2.32 -2 3 C-150.5 3 -299 3 -452 3 C-452 2.34 -452 1.68 -452 1 C-395.28436665 0.87252716 -338.56873315 0.74512492 -281.85309943 0.61781773 C-275.16134363 0.60279697 -268.46958783 0.58777563 -261.77783203 0.57275391 C-261.11191674 0.57125906 -260.44600146 0.56976422 -259.75990692 0.56822408 C-238.17003851 0.51975896 -216.5801702 0.47125012 -194.99030194 0.42271865 C-172.1779444 0.3714394 -149.36558674 0.3202099 -126.55322897 0.26903296 C-112.88446328 0.23836702 -99.21569767 0.20766112 -85.54693218 0.17690456 C-76.18104868 0.15583385 -66.81516507 0.13481244 -57.44928138 0.11383021 C-52.04107637 0.10171283 -46.63287142 0.08957332 -41.2246666 0.07737541 C-36.27632192 0.06621517 -31.32797711 0.05511664 -26.37963219 0.0440678 C-24.58680508 0.04005371 -22.79397802 0.03601671 -21.00115101 0.03195482 C-18.56864556 0.02644697 -16.13613994 0.02102173 -13.70363426 0.01561737 C-13.00385828 0.01401303 -12.30408229 0.01240868 -11.58310097 0.01075572 C-7.722059 0.00227749 -3.86105095 -0.0014964 0 0 Z " fill="#22282D" transform="translate(476,438)"/>
<path d="M0 0 C2.49237994 0.5799321 3.56516343 1.23632622 5.32421875 3.07421875 C7.64584541 7.33053429 7.28130152 8.85384427 6.19921875 13.51171875 C4.45703125 16.86328125 4.45703125 16.86328125 2.32421875 20.13671875 C1.62554687 21.22210938 0.926875 22.3075 0.20703125 23.42578125 C-0.78683594 24.95332031 -0.78683594 24.95332031 -1.80078125 26.51171875 C-2.36023438 27.44757813 -2.9196875 28.3834375 -3.49609375 29.34765625 C-4.80078125 31.51171875 -4.80078125 31.51171875 -5.80078125 32.51171875 C-9.18264868 32.94292225 -12.42239242 32.97899988 -15.80078125 32.51171875 C-18.42578125 30.44921875 -18.42578125 30.44921875 -19.80078125 27.51171875 C-20.49878229 21.21419829 -18.67982908 17.54747258 -15.55078125 12.32421875 C-15.15503906 11.62619141 -14.75929688 10.92816406 -14.3515625 10.20898438 C-10.59632208 3.73888981 -7.95180817 -0.38116105 0 0 Z " fill="#06090D" transform="translate(293.80078125,119.48828125)"/>
<path d="M0 0 C8.33609741 2.06932742 16.55792597 7.86586097 22.76953125 13.6875 C23.54106111 18.00806721 23.29700991 19.87869939 20.89453125 23.5625 C18.27639433 26.18063692 17.38124266 26.6168582 13.69140625 27.04296875 C8.57022408 26.57879786 5.33840542 24.65689903 1.01953125 22 C0.26542969 21.56494141 -0.48867187 21.12988281 -1.265625 20.68164062 C-5.38061857 18.2148372 -8.27202055 16.24713036 -10.23046875 11.6875 C-10.77193844 7.97456501 -10.47453817 6.17563884 -8.79296875 2.8125 C-5.85584265 0.37683445 -3.81395673 -0.20239903 0 0 Z " fill="#05080D" transform="translate(151.23046875,157.3125)"/>
<path d="M0 0 C4.92254005 2.51850887 6.56575936 6.72380659 8.796875 11.5390625 C10.02729708 14.22524726 10.02729708 14.22524726 12.3125 17.25 C14.33833198 20.55135582 14.64797948 22.19312056 14 26 C12.20006226 28.69990662 10.916227 30.5418865 8 32 C4.6875 32.375 4.6875 32.375 1 32 C-5.34982445 26.58066512 -12.04828473 17.51545227 -13.49609375 9.125 C-13.24545143 5.88264829 -12.40051878 3.5286848 -10.4375 0.9375 C-6.90803916 -0.41998494 -3.68764427 -0.62689953 0 0 Z " fill="#05080C" transform="translate(192,120)"/>
<path d="M0 0 C3.87474457 -0.11668214 7.74903396 -0.18741231 11.625 -0.25 C13.26662109 -0.30027344 13.26662109 -0.30027344 14.94140625 -0.3515625 C24.0660967 -0.46216481 24.0660967 -0.46216481 27.73828125 1.73046875 C30 4 30 4 30.69140625 6.25390625 C30.64886719 7.01574219 30.60632813 7.77757812 30.5625 8.5625 C30.54316406 9.32691406 30.52382812 10.09132812 30.50390625 10.87890625 C29.89661926 13.43516079 29.06571388 14.41137974 27 16 C26.34 16 25.68 16 25 16 C25 16.66 25 17.32 25 18 C21.29193404 18.11674705 17.5843446 18.18743274 13.875 18.25 C12.82828125 18.28351563 11.7815625 18.31703125 10.703125 18.3515625 C4.45155121 18.43069635 0.7563679 18.19585317 -4 14 C-5 13 -5 13 -5.25 9.125 C-5.20891261 5.30387289 -5.20891261 5.30387289 -3.625 3 C-2 2 -2 2 0 2 C0 1.34 0 0.68 0 0 Z " fill="#030508" transform="translate(132,210)"/>
<path d="M0 0 C2.73046875 1.8046875 2.73046875 1.8046875 5 5 C5.68808734 8.8489059 5.60707575 12.60146911 5.5 16.5 C5.50386719 18.04880859 5.50386719 18.04880859 5.5078125 19.62890625 C5.38675116 29.01115974 5.38675116 29.01115974 2 33 C-0.34009028 34.69454813 -2.07507262 35.01277832 -4.9375 35.5 C-8.45512679 34.92569359 -9.77592318 33.81443709 -11.95922852 31.04150391 C-14.12308771 26.7970304 -13.62884698 22.09063281 -13.5 17.4375 C-13.50257813 16.40947266 -13.50515625 15.38144531 -13.5078125 14.32226562 C-13.38601323 4.92545161 -13.38601323 4.92545161 -10 1 C-6.84203893 -0.57898053 -3.39329364 -0.81928171 0 0 Z " fill="#030508" transform="translate(244,106)"/>
<path d="M0 0 C1.03705078 -0.02449219 2.07410156 -0.04898438 3.14257812 -0.07421875 C7.68346911 -0.09171737 10.71192093 -0.09208703 14.7421875 2.12109375 C16.73516854 4.58879774 17.2663213 5.67336985 17.25 8.8125 C17.27449219 9.55371094 17.29898438 10.29492188 17.32421875 11.05859375 C16.38909102 13.90234115 14.96911106 15.56920614 12.59741211 17.38256836 C8.32402916 19.46670773 3.6534388 19.04585572 -1 18.9375 C-2.02802734 18.94845703 -3.05605469 18.95941406 -4.11523438 18.97070312 C-8.70602329 18.92607459 -11.60753345 18.87791653 -15.58984375 16.46484375 C-18.07141859 13.65798849 -18.40970956 12.75711854 -18.6875 8.9375 C-18.4375 5.375 -18.4375 5.375 -17.1875 3.5625 C-11.57264367 -0.24758108 -6.63406249 0.00821556 0 0 Z " fill="#04060A" transform="translate(335.4375,209.625)"/>
<path d="M0 0 C2.5625 1.5 2.5625 1.5 4 4 C4.84523053 10.65619044 4.84523053 10.65619044 2.45703125 14.453125 C-0.64340606 17.66693283 -3.93039364 19.65816397 -7.8125 21.8125 C-8.49892578 22.21919922 -9.18535156 22.62589844 -9.89257812 23.04492188 C-14.40049449 25.58249069 -17.70221018 26.63938843 -23 26 C-26.06082893 23.98115539 -27.54831961 22.43838695 -28.65625 18.91015625 C-28.9861136 16.23001447 -28.90431314 14.55490413 -28 12 C-25.04475572 8.99689751 -21.65111649 7.06078424 -18 5 C-17.22398437 4.49082031 -16.44796875 3.98164063 -15.6484375 3.45703125 C-10.54179089 0.2360545 -6.03653003 -1.26767131 0 0 Z " fill="#040609" transform="translate(334,158)"/>
<path d="M0 0 C2.825625 -0.0825 5.65125 -0.165 8.5625 -0.25 C9.43849854 -0.28641602 10.31449707 -0.32283203 11.21704102 -0.36035156 C16.99256726 -0.4412285 20.25931057 0.67904829 25 4 C27.4127262 7.14703418 27.39603842 10.11882349 27 14 C25.62409398 17.28688659 24.46768441 18.69831469 21.46875 20.6328125 C17.02792865 22.38313623 13.33650944 22.33288519 8.625 22.1875 C4.355625 22.0946875 4.355625 22.0946875 0 22 C0 14.74 0 7.48 0 0 Z " fill="#9ECEF0" transform="translate(150,334)"/>
<path d="M0 0 C0.99 0.495 0.99 0.495 2 1 C2 1.66 2 2.32 2 3 C2.8971875 3.1546875 2.8971875 3.1546875 3.8125 3.3125 C6.32225354 4.10127968 7.17017086 5.17017086 9 7 C12.73197441 8.34473721 16.6061132 8.14429122 20.52000809 8.1386652 C21.28439162 8.14150742 22.04877516 8.14434964 22.83632183 8.14727798 C25.41247811 8.15563817 27.98858949 8.15689423 30.5647583 8.15821838 C32.42437177 8.16278283 34.28398422 8.16778268 36.14359546 8.17318195 C41.26526402 8.18678581 46.38692594 8.19418792 51.50860786 8.20060861 C57.0273428 8.20860268 62.54606386 8.22230387 68.06478882 8.23532104 C77.63021663 8.25709789 87.19564585 8.27523796 96.76108551 8.29092598 C110.59120142 8.3136136 124.42130196 8.34175797 138.25140485 8.37124526 C160.68842983 8.41893476 183.12546112 8.46220376 205.5625 8.50268555 C227.3613331 8.54202637 249.16016064 8.58344669 270.95898438 8.62768555 C271.63078343 8.62904808 272.30258249 8.63041061 272.99473909 8.63181442 C279.74115065 8.64549966 286.48756213 8.65922721 293.23397355 8.67298577 C349.82263732 8.78838805 406.41131302 8.89664938 463 9 C463 9.33 463 9.66 463 10 C315.82 10 168.64 10 17 10 C17 10.66 17 11.32 17 12 C11.16433541 11.59754037 7.62902712 10.87546456 3 7 C0 2.8 0 2.8 0 0 Z " fill="#677A8A" transform="translate(7,429)"/>
<path d="M0 0 C1.65 0 3.3 0 5 0 C3.33333333 3.33333333 1.66666667 6.66666667 0 10 C-0.99 9.67 -1.98 9.34 -3 9 C-3 144.3 -3 279.6 -3 419 C-3.33 419 -3.66 419 -4 419 C-4.09152763 366.77722195 -4.16202456 314.554452 -4.20426132 262.33160955 C-4.20926423 256.16817576 -4.21444151 250.00474214 -4.21972656 243.84130859 C-4.2207758 242.61426441 -4.22182505 241.38722022 -4.22290608 240.12299287 C-4.24031792 220.24703726 -4.27185992 200.37112786 -4.30861118 180.49519968 C-4.3459989 160.10522018 -4.36823127 139.71526491 -4.37635398 119.32525253 C-4.38184624 106.74047993 -4.39920182 94.15583794 -4.43166587 81.57110554 C-4.45278695 72.94479808 -4.45920548 64.31855828 -4.45400551 55.69222683 C-4.45144 50.71304095 -4.45541129 45.73408353 -4.4768219 40.75493813 C-4.49628179 36.19618953 -4.49727362 31.63782313 -4.48359558 27.07905698 C-4.48190498 25.43019646 -4.48698396 23.78131213 -4.49953273 22.1324985 C-4.60846472 6.93555615 -4.60846472 6.93555615 0 0 Z " fill="#3B393B" transform="translate(10,9)"/>
<path d="M0 0 C1.94333663 0.34347345 3.87978398 0.72607641 5.8125 1.125 C6.89144531 1.33382813 7.97039062 1.54265625 9.08203125 1.7578125 C12 3 12 3 13.65811157 5.57331848 C15.19838426 9.50659925 15.42270632 12.9127098 15.38818359 17.0690918 C15.39344055 17.85518829 15.39869751 18.64128479 15.40411377 19.45120239 C15.41725434 22.03408011 15.40859961 24.61633543 15.3984375 27.19921875 C15.40045934 28.99949766 15.4033717 30.79977577 15.40713501 32.60005188 C15.41154977 36.36503938 15.40515238 40.12981283 15.39111328 43.89477539 C15.37398488 48.72376032 15.38389093 53.55224637 15.40183067 58.38121319 C15.41265996 62.09493282 15.40922676 65.80853369 15.4014473 69.52225685 C15.39944483 71.30328238 15.40190619 73.08431867 15.40888596 74.86533165 C15.41649051 77.35021025 15.40491249 79.83427403 15.38818359 82.3190918 C15.39729263 83.42488838 15.39729263 83.42488838 15.40658569 84.55302429 C15.34410839 89.55299393 15.34410839 89.55299393 13.47573853 91.98005676 C12.98874481 92.31663803 12.5017511 92.6532193 12 93 C11.34 92.67 10.68 92.34 10 92 C10.99 91.01 10.99 91.01 12 90 C12.19316398 87.39568986 12.26231253 84.89818298 12.24291992 82.29321289 C12.24481827 81.49794693 12.24671661 80.70268097 12.24867249 79.88331604 C12.25238646 77.24633013 12.24166633 74.60961782 12.23046875 71.97265625 C12.22927706 70.14424166 12.22882376 68.31582646 12.2290802 66.4874115 C12.2275142 62.6514809 12.2192164 58.81564348 12.20581055 54.97973633 C12.18883255 50.05886095 12.18499582 45.13808817 12.18575573 40.21718693 C12.18548396 36.44000771 12.18000138 32.66285099 12.17275429 28.88567924 C12.16956832 27.071163 12.16760038 25.25664421 12.16686058 23.44212532 C12.16469559 20.90676649 12.1559475 18.37151702 12.14526367 15.83618164 C12.14571686 15.083349 12.14617004 14.33051636 12.14663696 13.55487061 C12.12736855 10.43218159 11.9952502 7.98575061 11 5 C9.39679026 4.80448662 7.79237014 4.61888017 6.1875 4.4375 C5.29417969 4.33308594 4.40085937 4.22867187 3.48046875 4.12109375 C0.86624428 3.84341291 0.86624428 3.84341291 -2 5 C-3.21792257 8.65376772 -3.13176298 12.00152333 -3.11352539 15.80444336 C-3.11374443 16.9951519 -3.11374443 16.9951519 -3.1139679 18.20991516 C-3.11327074 20.83658573 -3.10548508 23.46318554 -3.09765625 26.08984375 C-3.09579068 27.9144334 -3.09436743 29.73902356 -3.09336853 31.56361389 C-3.08954859 36.3707314 -3.07972636 41.17781874 -3.06866455 45.98492432 C-3.05846082 50.87210688 -3.0538674 55.75929424 -3.04882812 60.64648438 C-3.04002836 68.54160454 -3.02769811 76.43670993 -3.0111084 84.33181763 C-3.00436955 87.55455858 -3 90.77724938 -3 94 C-3.66 94 -4.32 94 -5 94 C-6.08017087 89.63012816 -6.13499895 85.37730438 -6.11352539 80.9050293 C-6.11367142 80.10450638 -6.11381744 79.30398346 -6.1139679 78.47920227 C-6.11327355 75.8441798 -6.10550356 73.20922881 -6.09765625 70.57421875 C-6.09579037 68.74290506 -6.09436727 66.91159086 -6.09336853 65.08027649 C-6.08955672 60.26836765 -6.07973785 55.45648916 -6.06866455 50.64459229 C-6.05842169 45.73116466 -6.05386475 40.81773211 -6.04882812 35.90429688 C-6.03811437 26.26951794 -6.02105401 16.6347615 -6 7 C-5.34 7 -4.68 7 -4 7 C-4 6.01 -4 5.02 -4 4 C-3.34 4 -2.68 4 -2 4 C-2 3.34 -2 2.68 -2 2 C-1.34 2 -0.68 2 0 2 C0 1.34 0 0.68 0 0 Z " fill="#85A4BC" transform="translate(334,279)"/>
<path d="M0 0 C2.206875 -0.061875 4.41375 -0.12375 6.6875 -0.1875 C8.54955078 -0.23970703 8.54955078 -0.23970703 10.44921875 -0.29296875 C14.21666932 0.01787701 16.02794917 0.7227143 19 3 C20.38550197 5.77100394 20.1877467 7.9334706 20 11 C19.01 12.485 19.01 12.485 18 14 C17.34 14 16.68 14 16 14 C16 14.66 16 15.32 16 16 C10.72 16 5.44 16 0 16 C0 10.72 0 5.44 0 0 Z " fill="#A5D7FC" transform="translate(150,300)"/>
<path d="M0 0 C1.60680508 -0.02460045 1.60680508 -0.02460045 3.24607086 -0.04969788 C4.64243334 -0.07999714 4.64243334 -0.07999714 6.06700516 -0.11090851 C9.72209789 0.16112887 11.80987247 1.66536716 14.48856354 4.06932068 C15.06606354 4.54369568 15.64356354 5.01807068 16.23856354 5.50682068 C19.10729441 9.09273427 19.74596627 12.56477285 19.48856354 17.06932068 C16.23632294 14.11273832 14.8676881 11.20669437 13.48856354 7.06932068 C11.0978762 5.96295673 11.0978762 5.96295673 8.48856354 5.06932068 C7.49856354 4.40932068 6.50856354 3.74932068 5.48856354 3.06932068 C2.42475088 2.75559798 2.42475088 2.75559798 -1.1362381 2.79084778 C-1.81258751 2.78505538 -2.48893693 2.77926297 -3.18578178 2.77329504 C-5.45673487 2.75626209 -7.72748515 2.75341577 -9.99849701 2.75047302 C-11.6245397 2.7411771 -13.2505776 2.73100894 -14.8766098 2.72003174 C-19.29570253 2.69267968 -23.7147633 2.67756694 -28.13391852 2.66460371 C-32.75042126 2.6489959 -37.36685848 2.62219823 -41.98331451 2.59657288 C-50.72739234 2.54974339 -59.47148244 2.51301949 -68.21562177 2.4799 C-78.16959316 2.44170804 -88.12349883 2.39229024 -98.07741487 2.34191585 C-118.55537357 2.23853399 -139.03337385 2.14929395 -159.51143646 2.06932068 C-159.51143646 1.73932068 -159.51143646 1.40932068 -159.51143646 1.06932068 C-139.37881392 0.93846504 -119.24618854 0.80805501 -99.11355972 0.67816925 C-89.76473862 0.617845 -80.41591848 0.55737728 -71.06710052 0.49656677 C-62.91461535 0.44353833 -54.76212845 0.39078421 -46.60963941 0.33835363 C-42.29667865 0.31060654 -37.98371886 0.28272608 -33.67076111 0.2545166 C-29.6029608 0.22791496 -25.53515827 0.2016829 -21.46735382 0.17572212 C-19.98239048 0.16618214 -18.49742797 0.15651248 -17.01246643 0.14669609 C-16.31681831 0.14210443 -15.6211702 0.13751278 -14.90444183 0.13278198 C-14.229383 0.12829796 -13.55432416 0.12381393 -12.85880899 0.11919403 C-10.93810801 0.10765262 -9.01738515 0.09995141 -7.09666443 0.09237671 C-4.73095813 0.07716323 -2.36529435 0.04669423 0 0 Z " fill="#2B3C46" transform="translate(467.51143646240234,5.9306793212890625)"/>
<path d="M0 0 C0.66 0 1.32 0 2 0 C2.13066763 10.75276985 2.26107566 21.50554282 2.39115143 32.25831985 C2.45155765 37.2511536 2.51205359 42.24398623 2.57275391 47.23681641 C2.6313196 52.05433655 2.6896505 56.87185949 2.74781799 61.68938446 C2.77006146 63.52819673 2.79238982 65.36700798 2.81480408 67.20581818 C2.84616119 69.77946207 2.87721767 72.35310942 2.90820312 74.92675781 C2.91755386 75.68848801 2.9269046 76.4502182 2.9365387 77.23503113 C2.97545401 80.49043306 3 83.74429106 3 87 C2.34 87 1.68 87 1 87 C-0.08017087 82.63012816 -0.13499895 78.37730438 -0.11352539 73.9050293 C-0.11367142 73.10450638 -0.11381744 72.30398346 -0.1139679 71.47920227 C-0.11327355 68.8441798 -0.10550356 66.20922881 -0.09765625 63.57421875 C-0.09579037 61.74290506 -0.09436727 59.91159086 -0.09336853 58.08027649 C-0.08955672 53.26836765 -0.07973785 48.45648916 -0.06866455 43.64459229 C-0.05842169 38.73116466 -0.05386475 33.81773211 -0.04882812 28.90429688 C-0.03811437 19.26951794 -0.02105401 9.6347615 0 0 Z " fill="#80A6BE" transform="translate(328,286)"/>
<path d="M0 0 C0.33 0 0.66 0 1 0 C1.13941241 9.75354755 1.24582918 19.50685561 1.31087303 29.261199 C1.34210132 33.7912729 1.38441649 38.32066197 1.45263672 42.8503418 C1.51813582 47.22705312 1.5537699 51.60310844 1.56926346 55.98027229 C1.5802954 57.64479961 1.60183844 59.3092936 1.63438034 60.97353935 C1.92869194 76.65800335 1.92869194 76.65800335 -3.31747437 83.4513092 C-5.14844982 85.13664152 -6.65748565 86.15479273 -9 87 C-12 86 -12 86 -14 84 C-13.278125 83.95875 -12.55625 83.9175 -11.8125 83.875 C-7.78582346 82.62225619 -6.36458679 80.41551425 -4 77 C-3.13457301 74.27886497 -3.13457301 74.27886497 -3 72 C-2.34 72.33 -1.68 72.66 -1 73 C-0.67 48.91 -0.34 24.82 0 0 Z " fill="#2D2D2F" transform="translate(486,353)"/>
<path d="M0 0 C1.65 0 3.3 0 5 0 C3.33333333 3.33333333 1.66666667 6.66666667 0 10 C-0.99 9.67 -1.98 9.34 -3 9 C-3 37.05 -3 65.1 -3 94 C-3.33 94 -3.66 94 -4 94 C-4.09283355 82.9252306 -4.16383284 71.85055435 -4.20724869 60.77547455 C-4.22809011 55.63240274 -4.25634483 50.48959788 -4.30175781 45.34667969 C-4.3453384 40.37998341 -4.36916301 35.41354331 -4.37950897 30.44667053 C-4.38687844 28.55530263 -4.40126928 26.66394815 -4.42292023 24.77268982 C-4.45211682 22.11573396 -4.45594926 19.4598258 -4.45410156 16.80273438 C-4.46848267 16.02733307 -4.48286377 15.25193176 -4.49768066 14.45303345 C-4.45455066 8.69091271 -2.85703284 4.9990778 0 0 Z " fill="#3B393A" transform="translate(10,9)"/>
<path d="M0 0 C0.99 0.495 0.99 0.495 2 1 C2 1.66 2 2.32 2 3 C2.8971875 3.1546875 2.8971875 3.1546875 3.8125 3.3125 C6.32225354 4.10127968 7.17017086 5.17017086 9 7 C12.62201874 8.27344645 16.25656545 8.15873419 20.06347656 8.20532227 C20.76631775 8.21522186 21.46915894 8.22512146 22.19329834 8.23532104 C24.50904 8.26682784 26.82480215 8.29165049 29.140625 8.31640625 C30.74917118 8.33698513 32.35771206 8.35798185 33.96624756 8.37937927 C38.1944957 8.43450348 42.42279186 8.48395521 46.65112305 8.53222656 C50.96797954 8.58251216 55.28476652 8.63816135 59.6015625 8.69335938 C68.06764951 8.80082286 76.53379478 8.90229392 85 9 C85 9.33 85 9.66 85 10 C62.56 10 40.12 10 17 10 C17 10.66 17 11.32 17 12 C11.16433541 11.59754037 7.62902712 10.87546456 3 7 C0 2.8 0 2.8 0 0 Z " fill="#677B8A" transform="translate(7,429)"/>
<path d="M0 0 C2.206875 -0.061875 4.41375 -0.12375 6.6875 -0.1875 C8.54955078 -0.23970703 8.54955078 -0.23970703 10.44921875 -0.29296875 C14.21666932 0.01787701 16.02794917 0.7227143 19 3 C20.38550197 5.77100394 20.1877467 7.9334706 20 11 C19.01 12.485 19.01 12.485 18 14 C17.34 14 16.68 14 16 14 C16 14.66 16 15.32 16 16 C10.72 16 5.44 16 0 16 C0 10.72 0 5.44 0 0 Z M1 1 C1 5.62 1 10.24 1 15 C2.93875 15.020625 4.8775 15.04125 6.875 15.0625 C8.51082031 15.07990234 8.51082031 15.07990234 10.1796875 15.09765625 C12.95177546 15.19744303 12.95177546 15.19744303 15 14 C15.65555119 11.47266765 15.65555119 11.47266765 16 9 C16.66 9 17.32 9 18 9 C18.25030977 6.58380177 18.25030977 6.58380177 18 4 C12.92591989 0.61727992 6.99756732 1.33014132 1 1 Z " fill="#8EB1CA" transform="translate(150,300)"/>
<path d="M0 0 C3.5625 1.8125 3.5625 1.8125 6 4 C6.5775 4.474375 7.155 4.94875 7.75 5.4375 C10.61873087 9.02341359 11.25740273 12.49545217 11 17 C7.7477594 14.04341764 6.37912456 11.13737369 5 7 C2.60931266 5.89363605 2.60931266 5.89363605 0 5 C-0.99 4.34 -1.98 3.68 -3 3 C-6.19806665 2.5396236 -6.19806665 2.5396236 -9.6875 2.375 C-11.45673828 2.26285156 -11.45673828 2.26285156 -13.26171875 2.1484375 C-14.16535156 2.09945313 -15.06898438 2.05046875 -16 2 C-11.00917811 -0.98494132 -5.63610764 -0.62623418 0 0 Z " fill="#53595F" transform="translate(476,6)"/>
<path d="M0 0 C0 0.66 0 1.32 0 2 C-0.62648437 2.09796875 -1.25296875 2.1959375 -1.8984375 2.296875 C-2.71570313 2.44640625 -3.53296875 2.5959375 -4.375 2.75 C-5.18710938 2.88921875 -5.99921875 3.0284375 -6.8359375 3.171875 C-9.11069336 3.79734766 -9.11069336 3.79734766 -10.109375 5.7265625 C-11.12999386 8.33182644 -11.3166157 10.40965006 -11.4140625 13.203125 C-11.45273438 14.1828125 -11.49140625 15.1625 -11.53125 16.171875 C-11.5621875 17.18765625 -11.593125 18.2034375 -11.625 19.25 C-11.66367188 20.28125 -11.70234375 21.3125 -11.7421875 22.375 C-11.83631674 24.9164894 -11.92194979 27.45797433 -12 30 C-12.66 29.67 -13.32 29.34 -14 29 C-14 21.74 -14 14.48 -14 7 C-13.34 7 -12.68 7 -12 7 C-12.66 5.35 -13.32 3.7 -14 2 C-13.401875 1.855625 -12.80375 1.71125 -12.1875 1.5625 C-7.87526719 0.45364014 -4.51130623 -0.08511899 0 0 Z " fill="#86A8C0" transform="translate(243,104)"/>
<path d="M0 0 C0.99 0.495 0.99 0.495 2 1 C2 1.66 2 2.32 2 3 C2.8971875 3.1546875 2.8971875 3.1546875 3.8125 3.3125 C6 4 6 4 7.3125 5.46875 C9.51726763 7.46937248 11.27523217 7.69581842 14.1875 8.1875 C15.08855469 8.34605469 15.98960938 8.50460937 16.91796875 8.66796875 C17.94857422 8.83232422 17.94857422 8.83232422 19 9 C18.01 9.495 18.01 9.495 17 10 C17 10.66 17 11.32 17 12 C11.16433541 11.59754037 7.62902712 10.87546456 3 7 C0 2.8 0 2.8 0 0 Z " fill="#474E56" transform="translate(7,429)"/>
<path d="M0 0 C0.33 0 0.66 0 1 0 C1.85685384 5.56954996 -0.3102167 8.61213995 -3.296875 13.046875 C-5.11136014 15.12770658 -6.39208435 16.11700494 -9 17 C-12 16 -12 16 -14 14 C-12.9171875 13.938125 -12.9171875 13.938125 -11.8125 13.875 C-7.78582346 12.62225619 -6.36458679 10.41551425 -4 7 C-3.13457301 4.27886497 -3.13457301 4.27886497 -3 2 C-2.34 2.33 -1.68 2.66 -1 3 C-0.67 2.01 -0.34 1.02 0 0 Z " fill="#50575E" transform="translate(486,423)"/>
<path d="M0 0 C0.67434586 -0.00191345 1.34869171 -0.0038269 2.04347229 -0.00579834 C3.46819431 -0.00715782 4.89292882 -0.0034779 6.31762695 0.00488281 C8.49263525 0.01556962 10.66681451 0.00498875 12.84179688 -0.0078125 C14.2278664 -0.00649054 15.61393541 -0.00392738 17 0 C18.25868896 0.00225586 19.51737793 0.00451172 20.81420898 0.00683594 C23.84569951 0.24806257 25.52916704 0.66449708 28.06640625 2.265625 C28.06640625 2.925625 28.06640625 3.585625 28.06640625 4.265625 C27.3794165 4.10408936 26.69242676 3.94255371 25.98461914 3.77612305 C20.86750131 2.88095921 15.70153486 3.07968798 10.51879883 3.08032227 C8.50646049 3.07812779 6.49466403 3.05991799 4.48242188 3.04101562 C3.20947266 3.03908203 1.93652344 3.03714844 0.625 3.03515625 C-0.53717041 3.03104736 -1.69934082 3.02693848 -2.89672852 3.02270508 C-5.81809969 3.25638659 -7.47104407 3.73924498 -9.93359375 5.265625 C-9.93359375 4.275625 -9.93359375 3.285625 -9.93359375 2.265625 C-6.25110202 -0.18936949 -4.39051279 0.00787586 0 0 Z " fill="#9EC2DE" transform="translate(143.93359375,279.734375)"/>
<path d="M0 0 C2.40034102 3.60051153 4.32187705 6.96144535 3.625 11.375 C3.41875 11.91125 3.2125 12.4475 3 13 C2.34 13 1.68 13 1 13 C-0.37310707 14.29233607 -1.71034824 15.62437146 -3 17 C-2.88506243 15.10353002 -2.75760358 13.20781668 -2.625 11.3125 C-2.55539063 10.25675781 -2.48578125 9.20101563 -2.4140625 8.11328125 C-2.01239911 5.09322731 -1.25930981 2.75921946 0 0 Z " fill="#92B3CC" transform="translate(239,327)"/>
<path d="M0 0 C0.33 0 0.66 0 1 0 C1.01981934 0.95253662 1.03963867 1.90507324 1.06005859 2.88647461 C1.13679437 6.45947332 1.22539978 10.03210034 1.31738281 13.60473633 C1.35539443 15.14372355 1.39029293 16.68279124 1.421875 18.22192383 C1.59055048 26.34206682 1.79530481 34.12224767 4 42 C3.34 42 2.68 42 2 42 C-0.62202981 38.06695528 -0.25148527 34.73374931 -0.1953125 30.17578125 C-0.1924826 29.31438034 -0.18965271 28.45297943 -0.18673706 27.56547546 C-0.17554237 24.81434231 -0.15043921 22.06353475 -0.125 19.3125 C-0.11496927 17.44727033 -0.10584359 15.58203555 -0.09765625 13.71679688 C-0.07560538 9.1444058 -0.04108049 4.57225811 0 0 Z " fill="#1D2431" transform="translate(7,390)"/>
<path d="M0 0 C1.57890277 2.86140503 2.37190162 5.32006544 2.8515625 8.546875 C2.98046875 9.39121094 3.109375 10.23554688 3.2421875 11.10546875 C3.36851562 11.97816406 3.49484375 12.85085938 3.625 13.75 C3.7590625 14.63816406 3.893125 15.52632813 4.03125 16.44140625 C4.36023003 18.6267736 4.68292466 20.81287914 5 23 C4.34 22.67 3.68 22.34 3 22 C3 21.34 3 20.68 3 20 C2.34 20 1.68 20 1 20 C0.29867087 13.29980211 -0.11044961 6.73742646 0 0 Z " fill="#8EB4CC" transform="translate(287,345)"/>
<path d="M0 0 C0.66 0.99 1.32 1.98 2 3 C1.319375 3.680625 0.63875 4.36125 -0.0625 5.0625 C-0.51367188 5.51625 -0.96484375 5.97 -1.4296875 6.4375 C-2.54973359 7.55197372 -3.68126699 8.65495195 -4.8203125 9.75 C-5.43648437 10.348125 -6.05265625 10.94625 -6.6875 11.5625 C-7.26886719 12.12066406 -7.85023437 12.67882812 -8.44921875 13.25390625 C-10.05965861 15.06717229 -11.01929484 16.79220564 -12 19 C-12.66 19 -13.32 19 -14 19 C-12.59983383 14.95264468 -10.6818763 12.01519578 -8 8.6875 C-7.29875 7.80449219 -6.5975 6.92148438 -5.875 6.01171875 C-5.25625 5.34785156 -4.6375 4.68398437 -4 4 C-3.34 4 -2.68 4 -2 4 C-1.34 2.68 -0.68 1.36 0 0 Z " fill="#111B26" transform="translate(127,111)"/>
<path d="M0 0 C1.65 0 3.3 0 5 0 C3.33333333 3.33333333 1.66666667 6.66666667 0 10 C-0.99 9.67 -1.98 9.34 -3 9 C-3.33 9.66 -3.66 10.32 -4 11 C-3.21681311 7.08406554 -1.60820142 3.63593365 0 0 Z " fill="#576265" transform="translate(10,9)"/>
<path d="M0 0 C0.66 0.99 1.32 1.98 2 3 C1.01 3.33 0.02 3.66 -1 4 C-1.94775771 5.73210892 -2.89341131 7.46550738 -3.81640625 9.2109375 C-5.70323576 12.06297682 -8.05444329 13.32638823 -11 15 C-11.66 14.67 -12.32 14.34 -13 14 C-8.71 9.38 -4.42 4.76 0 0 Z " fill="#93B9D5" transform="translate(271,199)"/>
<path d="M0 0 C5.94 1.485 5.94 1.485 12 3 C12.33 4.65 12.66 6.3 13 8 C12.34 7.67 11.68 7.34 11 7 C11 6.34 11 5.68 11 5 C9.39679026 4.80448662 7.79237014 4.61888017 6.1875 4.4375 C5.29417969 4.33308594 4.40085937 4.22867187 3.48046875 4.12109375 C0.86624428 3.84341291 0.86624428 3.84341291 -2 5 C-2.33 5.99 -2.66 6.98 -3 8 C-3.33 6.68 -3.66 5.36 -4 4 C-3.34 4 -2.68 4 -2 4 C-2 3.34 -2 2.68 -2 2 C-1.34 2 -0.68 2 0 2 C0 1.34 0 0.68 0 0 Z " fill="#9EC4DF" transform="translate(334,279)"/>
<path d="M0 0 C0.33 0.99 0.66 1.98 1 3 C-0.27185109 4.46752049 -1.54669257 5.93285314 -2.8515625 7.37109375 C-4.61079647 9.86633376 -4.349858 12.06119276 -4 15 C-3.34 15.33 -2.68 15.66 -2 16 C-2 16.66 -2 17.32 -2 18 C-2.99 17.67 -3.98 17.34 -5 17 C-6.4431451 9.01923373 -6.4431451 9.01923373 -4.75 5.125 C-3.24420788 3.29653813 -1.75604348 1.58880124 0 0 Z " fill="#101D29" transform="translate(237,208)"/>
<path d="M0 0 C0 0.66 0 1.32 0 2 C-0.969375 2.309375 -1.93875 2.61875 -2.9375 2.9375 C-5.84065792 3.69523342 -5.84065792 3.69523342 -7 5 C-8.68608966 5.07205511 -10.37500659 5.08386068 -12.0625 5.0625 C-12.98160156 5.05347656 -13.90070313 5.04445313 -14.84765625 5.03515625 C-15.55792969 5.02355469 -16.26820313 5.01195313 -17 5 C-14.5863604 2.5863604 -12.90164101 2.24467148 -9.625 1.375 C-8.66851562 1.11460938 -7.71203125 0.85421875 -6.7265625 0.5859375 C-4 0 -4 0 0 0 Z " fill="#8FB2CC" transform="translate(210,85)"/>
<path d="M0 0 C7.95467422 -0.61189802 7.95467422 -0.61189802 11.5625 1.5 C13.65742367 5.14334551 13.27769546 7.83456807 13 12 C12.67 12 12.34 12 12 12 C12 10.02 12 8.04 12 6 C11.34 6 10.68 6 10 6 C10 5.01 10 4.02 10 3 C6.7 2.34 3.4 1.68 0 1 C0 0.67 0 0.34 0 0 Z " fill="#0A1625" transform="translate(325,158)"/>
<path d="M0 0 C1.39049921 3.16022548 0.90218951 4.27014325 -0.3125 7.625 C-2 11 -2 11 -4 13 C-6.125 12.625 -6.125 12.625 -8 12 C-7.236875 11.13375 -6.47375 10.2675 -5.6875 9.375 C-3.24779927 6.46399345 -1.57001723 3.47056439 0 0 Z " fill="#98BCD8" transform="translate(193,354)"/>
<path d="M0 0 C0 0.66 0 1.32 0 2 C-0.61488281 2.09796875 -1.22976562 2.1959375 -1.86328125 2.296875 C-6.99409305 3.13291046 -6.99409305 3.13291046 -11.0625 6.125 C-11.371875 6.74375 -11.68125 7.3625 -12 8 C-12.66 6.02 -13.32 4.04 -14 2 C-13.401875 1.855625 -12.80375 1.71125 -12.1875 1.5625 C-7.87526719 0.45364014 -4.51130623 -0.08511899 0 0 Z " fill="#97BDD9" transform="translate(243,104)"/>
<path d="M0 0 C-1.61929544 3.23859087 -4.74666411 3.67660913 -8 5 C-10.30230766 5.89831016 -10.30230766 5.89831016 -12 7 C-12.33 7.99 -12.66 8.98 -13 10 C-12.52048204 5.68433833 -11.29764982 3.7980059 -8 1 C-5.29120665 -0.35439668 -2.99066732 -0.06501451 0 0 Z " fill="#192733" transform="translate(240,282)"/>
<path d="M0 0 C0.33 0.66 0.66 1.32 1 2 C-0.77479455 7.22578394 -2.81188075 10.2646504 -7 14 C-7.33 13.34 -7.66 12.68 -8 12 C-6.6015625 9.43359375 -6.6015625 9.43359375 -4.625 6.4375 C-3.65433594 4.95056641 -3.65433594 4.95056641 -2.6640625 3.43359375 C-1 1 -1 1 0 0 Z " fill="#8CB1CB" transform="translate(129,137)"/>
<path d="M0 0 C0.66 0.33 1.32 0.66 2 1 C-0.96852125 6.22459741 -3.62704618 8.31352309 -9 11 C-9 8 -9 8 -7.03125 5.95703125 C-6.1959375 5.24933594 -5.360625 4.54164062 -4.5 3.8125 C-3.6646875 3.09707031 -2.829375 2.38164063 -1.96875 1.64453125 C-1.3190625 1.10183594 -0.669375 0.55914062 0 0 Z " fill="#111B26" transform="translate(147,93)"/>
<path d="M0 0 C1.98 0 3.96 0 6 0 C1.7045025 3.74123976 -2.99900452 6.34151874 -8 9 C-7.67 7.68 -7.34 6.36 -7 5 C-5.68 5 -4.36 5 -3 5 C-2.67 4.01 -2.34 3.02 -2 2 C-1.34 2 -0.68 2 0 2 C0 1.34 0 0.68 0 0 Z " fill="#95BAD6" transform="translate(159,82)"/>
<path d="M0 0 C1.09651823 3.41139003 0.94215473 6.20655581 0.5625 9.75 C0.40974609 11.22726563 0.40974609 11.22726563 0.25390625 12.734375 C0.12822266 13.85585937 0.12822266 13.85585937 0 15 C-0.99 15.33 -1.98 15.66 -3 16 C-2.57910004 10.39538469 -2.08386889 5.27913453 0 0 Z " fill="#94B7D2" transform="translate(107,184)"/>
<path d="M0 0 C-0.33 1.32 -0.66 2.64 -1 4 C-2.43640171 4.19573608 -3.87419504 4.38127816 -5.3125 4.5625 C-6.11300781 4.66691406 -6.91351563 4.77132812 -7.73828125 4.87890625 C-10 5 -10 5 -13 4 C-12.67 3.34 -12.34 2.68 -12 2 C-10.3603125 2.061875 -10.3603125 2.061875 -8.6875 2.125 C-4.96124119 1.99868614 -3.40698216 0 0 0 Z " fill="#97BDDA" transform="translate(323,181)"/>
<path d="M0 0 C2.45605371 2.55274874 2.98802939 3.85890643 3.29296875 7.453125 C3.25816406 8.70609375 3.22335937 9.9590625 3.1875 11.25 C3.16042969 12.51328125 3.13335937 13.7765625 3.10546875 15.078125 C3.07066406 16.04234375 3.03585937 17.0065625 3 18 C2.67 18 2.34 18 2 18 C1.6603981 16.12612523 1.32861309 14.25083303 1 12.375 C0.7215625 10.80878906 0.7215625 10.80878906 0.4375 9.2109375 C0.01284203 6.09425135 -0.07545206 3.14069188 0 0 Z " fill="#93B5CF" transform="translate(296,290)"/>
<path d="M0 0 C0.99 0.495 0.99 0.495 2 1 C2 1.66 2 2.32 2 3 C2.61875 3.12375 3.2375 3.2475 3.875 3.375 C6 4 6 4 8 6 C8 6.99 8 7.98 8 9 C6.25 8.875 6.25 8.875 4 8 C0 2.77777778 0 2.77777778 0 0 Z " fill="#5E6368" transform="translate(7,429)"/>
<path d="M0 0 C1.8871875 0.061875 1.8871875 0.061875 3.8125 0.125 C1.12050971 1.91966019 -1.20075028 2.95943914 -4.1875 4.125 C-5.52800052 4.77713539 -6.86411368 5.43879969 -8.1875 6.125 C-7.875 4.25 -7.875 4.25 -7.1875 2.125 C-4.09861478 0.06574319 -3.47814073 -0.1140374 0 0 Z " fill="#0E1A24" transform="translate(240.1875,105.875)"/>
<path d="M0 0 C3.96074927 0.56582132 6.72259306 1.69695729 10 4 C12 7 12 7 11.625 9.1875 C11.41875 9.785625 11.2125 10.38375 11 11 C10.51080078 10.25943359 10.51080078 10.25943359 10.01171875 9.50390625 C9.57472656 8.86324219 9.13773437 8.22257812 8.6875 7.5625 C8.25824219 6.92441406 7.82898438 6.28632813 7.38671875 5.62890625 C5.9965948 3.7114316 5.9965948 3.7114316 3 3 C3 2.34 3 1.68 3 1 C2.01 0.67 1.02 0.34 0 0 Z " fill="#A2C4DE" transform="translate(471,9)"/>
<path d="M0 0 C1.65 0.33 3.3 0.66 5 1 C4.67 2.32 4.34 3.64 4 5 C3.34 5 2.68 5 2 5 C0.62689293 6.29233607 -0.71034824 7.62437146 -2 9 C-2 7.68 -2 6.36 -2 5 C-1.34 5 -0.68 5 0 5 C0 3.35 0 1.7 0 0 Z " fill="#9AC5E5" transform="translate(238,335)"/>
<path d="M0 0 C0.33 0 0.66 0 1 0 C1.17942163 3.94727588 1.09350689 6.5980513 -1 10 C-1.99 10 -2.98 10 -4 10 C-3.67 7.36 -3.34 4.72 -3 2 C-2.34 2.33 -1.68 2.66 -1 3 C-0.67 2.01 -0.34 1.02 0 0 Z " fill="#656C72" transform="translate(486,423)"/>
<path d="M0 0 C0.33 0 0.66 0 1 0 C1.05422947 1.4370809 1.09289723 2.87475462 1.125 4.3125 C1.14820313 5.11300781 1.17140625 5.91351563 1.1953125 6.73828125 C1 9 1 9 -1 12 C-1.99 11.67 -2.98 11.34 -4 11 C-3.67 10.34 -3.34 9.68 -3 9 C-2.46465564 7.46331204 -1.94545728 5.92095694 -1.4375 4.375 C-1.16808594 3.55773437 -0.89867187 2.74046875 -0.62109375 1.8984375 C-0.41613281 1.27195312 -0.21117187 0.64546875 0 0 Z " fill="#2A3946" transform="translate(264,324)"/>
<path d="M0 0 C1.4370809 -0.05422947 2.87475462 -0.09289723 4.3125 -0.125 C5.11300781 -0.14820313 5.91351563 -0.17140625 6.73828125 -0.1953125 C9 0 9 0 12 2 C8.0186217 3.3271261 4.14954773 3.06915913 0 3 C0 2.01 0 1.02 0 0 Z " fill="#A2CEE9" transform="translate(232,280)"/>
<path d="M0 0 C0.33 0 0.66 0 1 0 C1.33 2.64 1.66 5.28 2 8 C1.34 8 0.68 8 0 8 C-0.66 9.65 -1.32 11.3 -2 13 C-3.32 12.34 -4.64 11.68 -6 11 C-5.195625 10.484375 -4.39125 9.96875 -3.5625 9.4375 C-0.33552922 6.36794243 -0.25103743 4.35131541 0 0 Z " fill="#8DB1CB" transform="translate(352,216)"/>
<path d="M0 0 C0.66 0.33 1.32 0.66 2 1 C2.6328125 3.72265625 2.6328125 3.72265625 3.125 7.0625 C3.29257812 8.16722656 3.46015625 9.27195313 3.6328125 10.41015625 C3.75398438 11.26480469 3.87515625 12.11945313 4 13 C3.34 13 2.68 13 2 13 C1.89042969 12.38511719 1.78085937 11.77023438 1.66796875 11.13671875 C1.43013672 9.92435547 1.43013672 9.92435547 1.1875 8.6875 C1.03667969 7.88699219 0.88585937 7.08648437 0.73046875 6.26171875 C-0.07572236 3.76554413 -1.02052002 2.67577894 -3 1 C-2.01 0.67 -1.02 0.34 0 0 Z " fill="#A1C7E5" transform="translate(351,210)"/>
<path d="M0 0 C0.33 0 0.66 0 1 0 C1.309375 1.093125 1.61875 2.18625 1.9375 3.3125 C2.58337897 5.55407994 3.2623117 7.7869351 4 10 C4.66 10.33 5.32 10.66 6 11 C3.03 10.505 3.03 10.505 0 10 C0 6.7 0 3.4 0 0 Z " fill="#8FB5D1" transform="translate(213,362)"/>
<path d="M0 0 C0.33 0 0.66 0 1 0 C1.08153933 1.58246707 1.13943557 3.16616273 1.1875 4.75 C1.22230469 5.63171875 1.25710938 6.5134375 1.29296875 7.421875 C0.94923684 10.44671583 -0.00227459 11.75583602 -2 14 C-2.66 13.67 -3.32 13.34 -4 13 C-3.525625 11.783125 -3.05125 10.56625 -2.5625 9.3125 C-1.40075962 6.22731209 -0.51074813 3.26878802 0 0 Z " fill="#91B5D0" transform="translate(391,250)"/>
<path d="M0 0 C0.33 0 0.66 0 1 0 C2.27947184 6.65941972 1.81115003 10.81546992 -1 17 C-2.3357457 13.22628488 -1.72408671 10.14168653 -1.0625 6.25 C-0.86785156 5.07953125 -0.67320312 3.9090625 -0.47265625 2.703125 C-0.31667969 1.81109375 -0.16070312 0.9190625 0 0 Z " fill="#121D28" transform="translate(376,230)"/>
<path d="M0 0 C2.60608273 2.5162178 4.89381685 5.05134359 7 8 C6.67 8.66 6.34 9.32 6 10 C3.5625 8.9375 3.5625 8.9375 1 7 C0.1875 3.3125 0.1875 3.3125 0 0 Z " fill="#96BAD5" transform="translate(350,138)"/>
<path d="M0 0 C0.66 0.33 1.32 0.66 2 1 C0.9375 3.4375 0.9375 3.4375 -1 6 C-4.6875 6.8125 -4.6875 6.8125 -8 7 C-5.4837822 4.39391727 -2.94865641 2.10618315 0 0 Z " fill="#8EB4CF" transform="translate(169,100)"/>
<path d="M0 0 C2.75 -0.25 2.75 -0.25 6 0 C8.375 2 8.375 2 10 4 C2.25 3.125 2.25 3.125 0 2 C0 1.34 0 0.68 0 0 Z " fill="#A5CAE7" transform="translate(165,335)"/>
<path d="M0 0 C2 2 2 2 2.125 5.125 C2.08375 6.07375 2.0425 7.0225 2 8 C0.68 8.33 -0.64 8.66 -2 9 C-1.125 2.25 -1.125 2.25 0 0 Z " fill="#819EB2" transform="translate(283,326)"/>
<path d="M0 0 C1.26237731 2.52475462 1.09856404 4.31200466 1.0625 7.125 C1.05347656 8.03507813 1.04445312 8.94515625 1.03515625 9.8828125 C1.02355469 10.58148438 1.01195312 11.28015625 1 12 C0.01 11.34 -0.98 10.68 -2 10 C-2.36328125 8.125 -2.36328125 8.125 -2.3125 6 C-2.30669922 4.948125 -2.30669922 4.948125 -2.30078125 3.875 C-2 2 -2 2 0 0 Z " fill="#1E2F40" transform="translate(129,213)"/>
<path d="M0 0 C-1.5830577 4.2742558 -4.50568404 6.26531794 -8 9 C-7.53918323 4.85264908 -4.48412936 0 0 0 Z " fill="#0F1A24" transform="translate(254,216)"/>
<path d="M0 0 C0.99 0.33 1.98 0.66 3 1 C0.42215154 3.64752004 -1.91648098 5.94432065 -5 8 C-5 7.01 -5 6.02 -5 5 C-4.34 5 -3.68 5 -3 5 C-2.5359375 4.0409375 -2.5359375 4.0409375 -2.0625 3.0625 C-1 1 -1 1 0 0 Z " fill="#9BC2DF" transform="translate(135,100)"/>
<path d="M0 0 C2.80045623 3.14591933 3.35261589 5.067064 3.1875 9.25 C3.16042969 10.14203125 3.13335937 11.0340625 3.10546875 11.953125 C3.07066406 12.62859375 3.03585937 13.3040625 3 14 C2.67 14 2.34 14 2 14 C-0.29612756 4.58997722 -0.29612756 4.58997722 0 0 Z " fill="#9ABDD7" transform="translate(303,328)"/>
<path d="M0 0 C0.33 0 0.66 0 1 0 C1.49230769 7.38461538 1.49230769 7.38461538 -1 10.5 C-1.66 10.995 -2.32 11.49 -3 12 C-3.33 11.01 -3.66 10.02 -4 9 C-3.01 8.67 -2.02 8.34 -1 8 C-0.67 5.36 -0.34 2.72 0 0 Z " fill="#132330" transform="translate(276,186)"/>
<path d="M0 0 C0.33 0 0.66 0 1 0 C1.05422947 1.4370809 1.09289723 2.87475462 1.125 4.3125 C1.14820313 5.11300781 1.17140625 5.91351563 1.1953125 6.73828125 C1 9 1 9 -1 12 C-1.99 12.495 -1.99 12.495 -3 13 C-2.17812739 8.61667943 -1.09845718 4.32059823 0 0 Z " fill="#1D2E3C" transform="translate(274,290)"/>
<path d="M0 0 C1.21236328 0.02707031 1.21236328 0.02707031 2.44921875 0.0546875 C3.37154297 0.08949219 3.37154297 0.08949219 4.3125 0.125 C4.3125 0.455 4.3125 0.785 4.3125 1.125 C2.70375 1.24875 2.70375 1.24875 1.0625 1.375 C-2.9613451 2.17976902 -4.16919253 3.00229874 -6.6875 6.125 C-7.0175 4.805 -7.3475 3.485 -7.6875 2.125 C-4.48369983 -0.01086678 -3.66810033 -0.10632175 0 0 Z " fill="#97B9D4" transform="translate(147.6875,156.875)"/>
<path d="M0 0 C0.99 0.33 1.98 0.66 3 1 C1.515 4.465 1.515 4.465 0 8 C-0.33 8 -0.66 8 -1 8 C-1.33 5.69 -1.66 3.38 -2 1 C-1.34 0.67 -0.68 0.34 0 0 Z " fill="#A3CDEB" transform="translate(279,125)"/>
<path d="M0 0 C0.33 0.66 0.66 1.32 1 2 C0.38125 2.7425 -0.2375 3.485 -0.875 4.25 C-2.60437281 6.48801188 -3.86106661 8.43739987 -5 11 C-5.66 11 -6.32 11 -7 11 C-5.5140084 6.40693504 -3.14985318 3.56430755 0 0 Z " fill="#172734" transform="translate(120,119)"/>
<path d="M0 0 C0.99 0.33 1.98 0.66 3 1 C2.67 1.66 2.34 2.32 2 3 C2.66 3 3.32 3 4 3 C4 3.66 4 4.32 4 5 C3.01 5.66 2.02 6.32 1 7 C0.01 6.67 -0.98 6.34 -2 6 C-1.01 4.68 -0.02 3.36 1 2 C0.34 1.67 -0.32 1.34 -1 1 C-0.67 0.67 -0.34 0.34 0 0 Z " fill="#899DB0" transform="translate(14,7)"/>
<path d="M0 0 C1.98 0 3.96 0 6 0 C6 0.66 6 1.32 6 2 C6.66 2 7.32 2 8 2 C8 2.99 8 3.98 8 5 C4.62496331 3.8141763 2.35277269 2.72426311 0 0 Z " fill="#8FB2CD" transform="translate(163,163)"/>
<path d="M0 0 C0.98120464 3.05263664 0.98120464 4.94736336 0 8 C-1.32 8.33 -2.64 8.66 -4 9 C-2.94124926 5.59687262 -1.99097846 2.98646769 0 0 Z " fill="#8EB1CA" transform="translate(120,151)"/>
<path d="M0 0 C2.375 0.1875 2.375 0.1875 5 1 C6.3125 3.5625 6.3125 3.5625 7 6 C6.01 6 5.02 6 4 6 C4 5.34 4 4.68 4 4 C3.01 3.67 2.02 3.34 1 3 C0.67 2.01 0.34 1.02 0 0 Z " fill="#2B3740" transform="translate(477,9)"/>
<path d="M0 0 C1.65 0 3.3 0 5 0 C5 0.66 5 1.32 5 2 C5.66 2 6.32 2 7 2 C7 2.66 7 3.32 7 4 C4.625 3.6875 4.625 3.6875 2 3 C1.34 2.01 0.68 1.02 0 0 Z " fill="#A0C5DF" transform="translate(13,433)"/>
<path d="M0 0 C0 2 0 2 -2.375 4.625 C-5 7 -5 7 -7 7 C-4.60526316 0 -4.60526316 0 0 0 Z " fill="#14212D" transform="translate(282,283)"/>
<path d="M0 0 C0.598125 0.20625 1.19625 0.4125 1.8125 0.625 C-0.4975 1.945 -2.8075 3.265 -5.1875 4.625 C-5.1875 3.635 -5.1875 2.645 -5.1875 1.625 C-2.1875 -0.375 -2.1875 -0.375 0 0 Z " fill="#A2C8E5" transform="translate(139.1875,280.375)"/>
<path d="M0 0 C0 0.99 0 1.98 0 3 C-2.5 5.1875 -2.5 5.1875 -5 7 C-5.66 6.67 -6.32 6.34 -7 6 C-4.69 4.02 -2.38 2.04 0 0 Z " fill="#8DB2CF" transform="translate(151,114)"/>
<path d="M0 0 C0 0.99 0 1.98 0 3 C-5.625 6 -5.625 6 -9 6 C-7.8803014 4.99406757 -6.7540588 3.9954151 -5.625 3 C-4.68527344 2.1646875 -4.68527344 2.1646875 -3.7265625 1.3125 C-2 0 -2 0 0 0 Z " fill="#91B4CF" transform="translate(161,107)"/>
<path d="M0 0 C0.33 0 0.66 0 1 0 C1.36923077 6.52307692 1.36923077 6.52307692 -0.5 8.9375 C-0.995 9.288125 -1.49 9.63875 -2 10 C-1.54177532 6.53058454 -1.10868317 3.32604951 0 0 Z " fill="#1A2A3A" transform="translate(93,166)"/>
<path d="M0 0 C6.64615385 1.47692308 6.64615385 1.47692308 8.4375 4.125 C8.7159375 5.053125 8.7159375 5.053125 9 6 C5.06326356 4.68775452 2.77280706 3.08089673 0 0 Z " fill="#1D2D3A" transform="translate(311,101)"/>
<path d="M0 0 C-3.00617269 3.00617269 -5.82381598 2.59585316 -10 3 C-9 1 -9 1 -6.6875 -0.1875 C-3.88010429 -1.03624754 -2.698065 -0.99928333 0 0 Z " fill="#162634" transform="translate(190,73)"/>
</svg>
